<svg xmlns="http://www.w3.org/2000/svg" width="630.462" height="567.292" viewBox="0 0 630.462 567.292">
  <g id="Group_913" data-name="Group 913" transform="translate(-5557.112 11623)">
    <path id="Path_814" data-name="Path 814" d="M109.558,75.591l-.049,11.676a1.932,1.932,0,0,1-.11.676.879.879,0,0,1-.3.412.626.626,0,0,1-.438.113,1.156,1.156,0,0,1-.539-.223L3.96,17.732,1.478,15.973A3.309,3.309,0,0,1,.9,15.414a3.751,3.751,0,0,1-.45-.7,4.15,4.15,0,0,1-.3-.8,4.413,4.413,0,0,1-.137-.878L0,1.209A1.872,1.872,0,0,1,.112.528.864.864,0,0,1,.42.116.7.7,0,0,1,.886,0a1.345,1.345,0,0,1,.583.22L108.162,72.651a3.251,3.251,0,0,1,.566.564,3.7,3.7,0,0,1,.431.7,4.1,4.1,0,0,1,.282.8,4.358,4.358,0,0,1,.117.873Z" transform="translate(5836.858 -11573.45)" fill="#fff"/>
    <path id="Path_764" data-name="Path 764" d="M29.939,1.836,7.991,16.355a6.36,6.36,0,0,0-1.171,1.052,7.245,7.245,0,0,0-.92,1.336A8.076,8.076,0,0,0,5.265,20.3a8.664,8.664,0,0,0-.317,1.717L3.715,114.171a3.787,3.787,0,0,0,.165,1.379,1.766,1.766,0,0,0,.575.856,1.314,1.314,0,0,0,.891.263,2.371,2.371,0,0,0,1.114-.4L28.3,101.484a6.529,6.529,0,0,0,1.166-1.062,7.423,7.423,0,0,0,.919-1.339,8.248,8.248,0,0,0,.64-1.555,8.818,8.818,0,0,0,.329-1.712L32.6,3.925a3.786,3.786,0,0,0-.121-1.4,1.7,1.7,0,0,0-.55-.863,1.247,1.247,0,0,0-.879-.256A2.35,2.35,0,0,0,29.939,1.836Z" transform="translate(5622.828 -11551.984)" fill="#ebebeb"/>
    <g id="freepik--Floor--inject-3" transform="translate(5557.112 -11450.581)">
      <path id="Path_527" data-name="Path 527" d="M127.017,524.476c123.1,77.105,322.7,77.105,445.8,0s123.11-202.109,0-279.215-322.7-77.105-445.81,0S3.907,447.371,127.017,524.476Z" transform="translate(-34.677 -187.432)" fill="#f5f5f5"/>
    </g>
    <g id="freepik--Tablet--inject-3" transform="translate(5951.264 -11298.013)">
      <path id="Path_572" data-name="Path 572" d="M448.634,278.578l72.337,50.058a8.738,8.738,0,0,1,0,14.042L408.93,420.239a6.651,6.651,0,0,1-7.057,0l-72.323-50.075a8.738,8.738,0,0,1,0-14.041l112.1-77.544A6.624,6.624,0,0,1,448.634,278.578Z" transform="translate(-326.015 -277.565)" fill="#ba68c8"/>
      <path id="Path_573" data-name="Path 573" d="M448.634,278.578l72.337,50.058a8.738,8.738,0,0,1,0,14.042L408.93,420.239a6.651,6.651,0,0,1-7.057,0l-72.323-50.075a8.738,8.738,0,0,1,0-14.041l112.1-77.544A6.624,6.624,0,0,1,448.634,278.578Z" transform="translate(-326.015 -277.565)" fill="#37474f"/>
      <path id="Path_574" data-name="Path 574" d="M448.634,278.578l72.337,50.058a8.738,8.738,0,0,1,0,14.042L408.93,420.239a6.651,6.651,0,0,1-7.057,0l-72.323-50.075a8.738,8.738,0,0,1,0-14.041l112.1-77.544A6.624,6.624,0,0,1,448.634,278.578Z" transform="translate(-326.015 -277.565)" opacity="0.2"/>
      <path id="Path_575" data-name="Path 575" d="M362.17,321.939l62.7-43.353a6.626,6.626,0,0,1,7.042,0l72.337,50.058a8.738,8.738,0,0,1,0,14.042L392.212,420.247a6.355,6.355,0,0,1-3.528,1V404.362Z" transform="translate(-309.238 -277.573)" fill="#37474f"/>
      <path id="Path_576" data-name="Path 576" d="M408.272,411.085l112.042-77.562c1.947-1.334,1.947-3.51,0-4.879l-72.337-50.058a6.626,6.626,0,0,0-7.042,0L328.893,356.147c-1.947,1.334-1.947,3.51,0,4.879l72.323,50.058a6.651,6.651,0,0,0,7.057,0Z" transform="translate(-325.357 -277.573)" fill="#263238"/>
      <path id="Path_577" data-name="Path 577" d="M408.272,411.085l112.042-77.562c1.947-1.334,1.947-3.51,0-4.879l-72.337-50.058a6.626,6.626,0,0,0-7.042,0L328.893,356.147c-1.947,1.334-1.947,3.51,0,4.879l72.323,50.058a6.651,6.651,0,0,0,7.057,0Z" transform="translate(-325.969 -277.556)" opacity="0.1"/>
      <path id="Path_578" data-name="Path 578" d="M505.4,331.126,435.447,282.7a2.722,2.722,0,0,0-2.826,0L336.2,349.4a1.117,1.117,0,0,0,0,1.948l69.951,48.425a2.722,2.722,0,0,0,2.826,0l96.421-66.7a1.117,1.117,0,0,0,0-1.948Z" transform="translate(-321.553 -273.999)" fill="#fafafa"/>
      <path id="Path_579" data-name="Path 579" d="M355.523,339.835a4.24,4.24,0,0,0,4.538,0,1.769,1.769,0,0,0,0-3.142,4.24,4.24,0,0,0-4.539,0,1.769,1.769,0,0,0,0,3.142Z" transform="translate(-312.766 -233.423)" fill="#37474f"/>
      <g id="Group_906" data-name="Group 906" transform="translate(41.801 102.137)" opacity="0.3">
        <path id="Path_580" data-name="Path 580" d="M355.523,339.835a4.24,4.24,0,0,0,4.538,0,1.769,1.769,0,0,0,0-3.142,4.24,4.24,0,0,0-4.539,0,1.769,1.769,0,0,0,0,3.142Z" transform="translate(-354.567 -336.035)" fill="#37474f"/>
      </g>
      <path id="Path_581" data-name="Path 581" d="M431.853,294.413a1.064,1.064,0,0,0,1.157,0,.455.455,0,0,0,0-.79,1.064,1.064,0,0,0-1.157,0,.455.455,0,0,0,0,.79Z" transform="translate(-277.01 -265.581)" fill="#37474f"/>
      <path id="Path_582" data-name="Path 582" d="M433.152,298.429a2.175,2.175,0,0,0,2.3,0,.905.905,0,0,0,0-1.6,2.175,2.175,0,0,0-2.3,0,.905.905,0,0,0,0,1.6Z" transform="translate(-276.523 -263.277)" fill="#37474f"/>
      <path id="Path_583" data-name="Path 583" d="M434.934,298.84a.651.651,0,0,0,0-1.106l-7.584-5.266a1.476,1.476,0,0,0-1.581,0,.629.629,0,0,0,0,1.088l7.584,5.266a1.476,1.476,0,0,0,1.581.018Z" transform="translate(-279.872 -266.497)" fill="#37474f"/>
      <g id="Group_907" data-name="Group 907" transform="translate(145.585 26.602)" opacity="0.3">
        <path id="Path_584" data-name="Path 584" d="M431.853,294.413a1.064,1.064,0,0,0,1.157,0,.455.455,0,0,0,0-.79,1.064,1.064,0,0,0-1.157,0,.455.455,0,0,0,0,.79Z" transform="translate(-422.594 -291.323)" fill="#37474f"/>
        <path id="Path_585" data-name="Path 585" d="M433.152,298.429a2.175,2.175,0,0,0,2.3,0,.905.905,0,0,0,0-1.6,2.175,2.175,0,0,0-2.3,0,.905.905,0,0,0,0,1.6Z" transform="translate(-422.108 -289.019)" fill="#37474f"/>
        <path id="Path_586" data-name="Path 586" d="M434.934,298.84a.651.651,0,0,0,0-1.106l-7.584-5.266a1.476,1.476,0,0,0-1.581,0,.629.629,0,0,0,0,1.088l7.584,5.266a1.476,1.476,0,0,0,1.581.018Z" transform="translate(-425.456 -292.239)" fill="#37474f"/>
      </g>
    </g>
    <path id="Path_587" data-name="Path 587" d="M199.637,200.326,81.051,282.451a8.738,8.738,0,0,0,0,14.041l85.572,59.22a6.651,6.651,0,0,0,7.057,0l118.586-82.125a8.763,8.763,0,0,0,0-14.041l-85.572-59.22A6.651,6.651,0,0,0,199.637,200.326Z" transform="translate(5509.939 -11634.686)" fill="#263238"/>
    <path id="Path_588" data-name="Path 588" d="M199.637,200.326,81.051,282.451a8.738,8.738,0,0,0,0,14.041l85.572,59.22a6.651,6.651,0,0,0,7.057,0l118.586-82.125a8.763,8.763,0,0,0,0-14.041l-85.572-59.22A6.651,6.651,0,0,0,199.637,200.326Z" transform="translate(5509.939 -11634.905)" opacity="0.2"/>
    <path id="Path_589" data-name="Path 589" d="M170.111,211.54l-89.1,61.677a8.738,8.738,0,0,0,0,14.041l85.572,59.22a6.362,6.362,0,0,0,3.528,1.018Z" transform="translate(5509.92 -11625.452)" fill="#37474f"/>
    <path id="Path_590" data-name="Path 590" d="M170.111,211.54l-89.1,61.677a8.738,8.738,0,0,0,0,14.041l85.572,59.22a6.362,6.362,0,0,0,3.528,1.018Z" transform="translate(5509.979 -11625.005)" fill="#263238" opacity="0.1"/>
    <path id="Path_591" data-name="Path 591" d="M80.353,282.451l118.586-82.125a6.651,6.651,0,0,1,7.057,0l85.572,59.22a2.768,2.768,0,0,1,0,4.879L172.982,346.55a6.651,6.651,0,0,1-7.057,0L80.353,287.33A2.768,2.768,0,0,1,80.353,282.451Z" transform="translate(5510.578 -11634.686)" fill="#37474f"/>
    <path id="Path_592" data-name="Path 592" d="M141.157,219.849,69.42,170.23a9.42,9.42,0,0,0-.849,4.125L74.7,297.393a10.251,10.251,0,0,0,3.558,7.161,6.463,6.463,0,0,0,6.822-.14L142.4,264.8Z" transform="translate(5505.788 -11656.648)" fill="#ba68c8"/>
    <path id="Path_593" data-name="Path 593" d="M141.157,219.849,69.42,170.23a9.42,9.42,0,0,0-.849,4.125L74.7,297.393a10.251,10.251,0,0,0,3.558,7.161,6.463,6.463,0,0,0,6.822-.14L142.4,264.8Z" transform="translate(5505.788 -11656.648)" opacity="0.2"/>
    <path id="Path_594" data-name="Path 594" d="M89.393,278.509,194.8,205.546a6.651,6.651,0,0,1,7.057,0l2.928,1.983a2.768,2.768,0,0,1,0,4.879L99.378,285.372a6.651,6.651,0,0,1-7.057,0l-2.928-1.983A2.768,2.768,0,0,1,89.393,278.509Z" transform="translate(5514.773 -11630.744)" fill="#455a64"/>
    <path id="Path_596" data-name="Path 596" d="M98.473,283.713l105.41-72.963a6.722,6.722,0,0,1,7.057,0l32.633,22.607c1.947,1.334,1.947,3.51,0,4.879L138.163,311.2a6.651,6.651,0,0,1-7.057,0L98.473,288.593C96.482,287.259,96.482,285.065,98.473,283.713Z" transform="translate(5518.971 -11626.804)" fill="#455a64"/>
    <path id="Path_598" data-name="Path 598" d="M157.173,264.655l32.633-22.589a6.651,6.651,0,0,1,7.057,0l12.781,8.864c1.947,1.334,1.947,3.51,0,4.879L177.011,278.4a6.651,6.651,0,0,1-7.057,0l-12.8-8.864A2.773,2.773,0,0,1,157.173,264.655Z" transform="translate(5546.224 -11603.164)" fill="#455a64"/>
    <path id="Path_600" data-name="Path 600" d="M193.082,242.678l3.279-2.282a.215.215,0,0,0,0-.369l-4.172-2.843a.525.525,0,0,0-.556,0l-3.279,2.264a.238.238,0,0,0,0,.386l4.085,2.826A.553.553,0,0,0,193.082,242.678Zm-7.218-9.46-3.294,2.264a.246.246,0,0,0,0,.386l4.085,2.826a.5.5,0,0,0,.542,0l3.294-2.264a.246.246,0,0,0,0-.386l-4.085-2.826A.5.5,0,0,0,185.864,233.217Zm-10.614,7.337-5.563,3.861c-.146,0-.132.263,0,.369l4.085,2.826a.537.537,0,0,0,.556,0l5.563-3.861a.229.229,0,0,0,0-.369l-4.085-2.826a.518.518,0,0,0-.556-.088Zm5.856-4.019-3.294,2.282a.228.228,0,0,0,0,.369l4.129,2.808a.512.512,0,0,0,.542,0l3.294-2.282a.228.228,0,0,0,0-.369l-4.085-2.826a.52.52,0,0,0-.63-.07Zm-12.9,8.916-3.279,2.282a.215.215,0,0,0,0,.369l4.085,2.843a.525.525,0,0,0,.556,0l3.279-2.264a.238.238,0,0,0,0-.386l-4.085-2.9a.552.552,0,0,0-.6-.035Zm-4.8,3.335-3.279,2.264a.231.231,0,0,0,0,.386l4.085,2.826a.573.573,0,0,0,.556,0l3.279-2.282c.146-.105.117-.263,0-.386l-4.085-2.826a.506.506,0,0,0-.6-.07Zm16.1,11.479L182.8,258a.246.246,0,0,0,0-.386l-4.085-2.826a.5.5,0,0,0-.542,0l-3.294,2.264a.246.246,0,0,0,0,.386l4.085,2.826a.5.5,0,0,0,.483-.088Zm-4.8,3.335L178,261.318a.229.229,0,0,0,0-.369l-4.085-2.826a.477.477,0,0,0-.542,0l-3.294,2.282a.228.228,0,0,0,0,.369l4.085,2.826a.517.517,0,0,0,.454-.088Zm-4.8,3.317,3.294-2.264a.246.246,0,0,0,0-.386l-4.187-2.966a.548.548,0,0,0-.542,0l-3.294,2.282a.228.228,0,0,0,0,.369l4.085,2.843a.5.5,0,0,0,.586.035Zm-4.8,3.335,3.294-2.282a.246.246,0,0,0,0-.386l-4.085-2.826a.5.5,0,0,0-.542,0l-3.294,2.264a.246.246,0,0,0,0,.386l4.085,2.826a.551.551,0,0,0,.483-.07Zm23.234-24.169,3.279-2.282c.146,0,.132-.263,0-.369l-4.085-2.826a.537.537,0,0,0-.556,0l-3.279,2.282a.221.221,0,0,0,0,.369l4.085,2.826a.517.517,0,0,0,.5-.088Zm-4.026,10.865,7.32-5.072c.146-.105.117-.263,0-.386l-9.926-6.863a.5.5,0,0,0-.542,0l-3.792,2.615a.246.246,0,0,0,0,.386l5.256,3.633c.161.105.176.281,0,.369l-3.031,2.106a.228.228,0,0,0,0,.369l4.085,2.826a.517.517,0,0,0,.571-.07Zm-25.8-4.932-3.279,2.282a.215.215,0,0,0,0,.369l4.085,2.826a.537.537,0,0,0,.556,0l3.279-2.282a.221.221,0,0,0,0-.369l-4.085-2.826a.513.513,0,0,0-.556,0Zm-4.8,3.335-3.279,2.264a.231.231,0,0,0,0,.386l4.085,2.826a.525.525,0,0,0,.556,0l3.279-2.264c.146-.105.117-.263,0-.386l-4.085-2.826a.5.5,0,0,0-.512,0ZM130.846,293.4a.5.5,0,0,0,.542,0l3.279-2.264a.231.231,0,0,0,0-.386l-4.085-2.826a.525.525,0,0,0-.556,0l-3.279,2.264c-.146.105-.117.263,0,.386ZM115.3,281.941,112,284.205a.246.246,0,0,0,0,.386l4.085,2.826a.5.5,0,0,0,.542,0l3.294-2.264a.246.246,0,0,0,0-.386l-4.085-2.826a.5.5,0,0,0-.5,0Zm8.447,8.284a.512.512,0,0,0,.542,0l3.279-2.282c.146,0,.132-.263,0-.369l-4.1-2.826a.513.513,0,0,0-.542,0l-3.279,2.282a.215.215,0,0,0,0,.369Zm16,5.494,3.294-2.282a.229.229,0,0,0,0-.369l-4.085-2.826a.512.512,0,0,0-.542,0l-3.294,2.282a.228.228,0,0,0,0,.369l4.085,2.826a.514.514,0,0,0,.586,0Zm-5.344,3.3a.5.5,0,0,0,.542,0l3.294-2.264a.246.246,0,0,0,0-.386l-4.085-2.826a.548.548,0,0,0-.542,0l-3.294,2.282a.229.229,0,0,0,0,.369Zm-14.3-20.413-3.294,2.282a.228.228,0,0,0,0,.369l4.085,2.843a.5.5,0,0,0,.542,0l3.294-2.282c.132,0,.117-.263,0-.369l-4.085-2.826a.547.547,0,0,0-.5-.018Zm24.01-16.622-3.294,2.282a.228.228,0,0,0,0,.369l4.085,2.843a.5.5,0,0,0,.542,0l3.294-2.264a.246.246,0,0,0,0-.386L144.652,262a.547.547,0,0,0-.5-.018Zm-19.164,13.357-3.294,2.282c-.132,0-.117.263,0,.369l4.085,2.826a.512.512,0,0,0,.542,0l3.294-2.282a.229.229,0,0,0,0-.369l-4.085-2.826a.5.5,0,0,0-.542,0Zm24.01-16.622L145.677,261c-.146,0-.132.263,0,.369l4.085,2.826a.513.513,0,0,0,.542,0l3.294-2.282a.228.228,0,0,0,0-.369l-4.085-2.826a.479.479,0,0,0-.556-.053Zm-9.6,6.652-3.294,2.264a.246.246,0,0,0,0,.386l4.085,2.826a.548.548,0,0,0,.542,0l3.294-2.282a.246.246,0,0,0,0-.386l-4.085-2.826a.5.5,0,0,0-.542-.035Zm-4.8,3.317-3.294,2.282a.229.229,0,0,0,0,.369l4.085,2.826a.513.513,0,0,0,.542,0l3.294-2.282a.228.228,0,0,0,0-.369l-4.085-2.843a.513.513,0,0,0-.542-.035Zm-4.8,3.335-3.294,2.264a.246.246,0,0,0,0,.386l4.085,2.826a.5.5,0,0,0,.542,0l3.294-2.264a.246.246,0,0,0,0-.386l-4.085-2.826a.5.5,0,0,0-.542-.053Zm25.694,4.827,3.279-2.264a.231.231,0,0,0,0-.386l-4.085-2.826a.5.5,0,0,0-.542,0l-3.323,2.212a.246.246,0,0,0,0,.386l4.085,2.826a.5.5,0,0,0,.586,0Zm40.993-51.023-3.294,2.282a.229.229,0,0,0,0,.369l4.085,2.826a.512.512,0,0,0,.542,0l3.294-2.282c.132,0,.117-.263,0-.369l-4.085-2.826a.477.477,0,0,0-.5-.053Zm-5.856,4.019-3.294,2.282a.228.228,0,0,0,0,.369l4.085,2.826a.512.512,0,0,0,.542,0l3.294-2.282c.132,0,.117-.263,0-.369l-4.085-2.826a.511.511,0,0,0-.4-.053Zm10.614-7.337-3.148,2.212a.246.246,0,0,0,0,.386l4.085,2.826a.5.5,0,0,0,.542,0l3.294-2.264a.246.246,0,0,0,0-.386l-4.085-2.826a.5.5,0,0,0-.6,0Zm-24.127,31.242,3.294-2.282a.246.246,0,0,0,0-.386l-4.085-2.826a.5.5,0,0,0-.542,0l-3.294,2.264a.246.246,0,0,0,0,.386l4.085,2.826a.553.553,0,0,0,.63-.035Zm29.559-34.577a.513.513,0,0,0-.542,0l-3.294,2.282c-.132,0-.117.263,0,.369l4.085,2.826a.512.512,0,0,0,.542,0l3.294-2.282a.229.229,0,0,0,0-.369ZM160.244,273.5l3.294-2.282c.132,0,.117-.263,0-.369l-4.085-2.826a.512.512,0,0,0-.542,0l-3.323,2.229a.229.229,0,0,0,0,.369l4.085,2.826a.515.515,0,0,0,.571.035Zm58.9-40.773,3.279-2.264a.231.231,0,0,0,0-.386l-4.085-2.826a.525.525,0,0,0-.556,0l-3.279,2.264c-.146.105-.117.263,0,.386l4.041,2.791a.5.5,0,0,0,.6.018Zm-10.643-.7,3.294-2.282a.246.246,0,0,0,0-.386l-4.085-2.826a.5.5,0,0,0-.542,0l-3.265,2.229a.246.246,0,0,0,0,.386l4.085,2.826a.548.548,0,0,0,.512.035Zm3.968-8.776a.548.548,0,0,0-.542,0l-3.294,2.282a.228.228,0,0,0,0,.369l4.085,2.843a.5.5,0,0,0,.542,0l3.294-2.264a.246.246,0,0,0,0-.386Zm1.01-.7,9.926,6.863a.512.512,0,0,0,.542,0l3.279-2.282a.215.215,0,0,0,0-.369L217.3,219.9a.477.477,0,0,0-.542,0l-3.294,2.282c-.161.035-.146.211.015.316Zm-11.156,7.319-3.294,2.282c-.132,0-.117.263,0,.369l4.085,2.826a.513.513,0,0,0,.542,0l3.294-2.282a.229.229,0,0,0,0-.369l-4.085-2.826a.515.515,0,0,0-.542-.053Zm-36.147,25.029-3.265,2.212a.246.246,0,0,0,0,.386l4.085,2.826a.5.5,0,0,0,.542,0l3.294-2.264a.246.246,0,0,0,0-.386l-4.085-2.826a.5.5,0,0,0-.571,0ZM213.8,236.061a.512.512,0,0,0,.542,0l3.279-2.282a.215.215,0,0,0,0-.369l-4.085-2.826a.5.5,0,0,0-.556,0l-3.279,2.282c-.146,0-.117.263,0,.369Zm-42.823,15.5-3.294,2.282a.229.229,0,0,0,0,.369l4.085,2.826a.512.512,0,0,0,.542,0l3.294-2.282c.132,0,.117-.263,0-.369l-4.085-2.826a.515.515,0,0,0-.542-.053Zm-35.283,38.614a.512.512,0,0,0,.542,0l3.279-2.282a.215.215,0,0,0,0-.369l-4.085-2.826a.537.537,0,0,0-.556,0l-3.279,2.282a.221.221,0,0,0,0,.369Zm-7.92-8.741-3.279,2.264c-.146.105-.117.263,0,.386l4.085,2.826a.5.5,0,0,0,.542,0l3.279-2.264a.231.231,0,0,0,0-.386l-4.085-2.826A.524.524,0,0,0,127.772,281.432Zm13.293,5.266,3.279-2.264a.231.231,0,0,0,0-.386l-4.085-2.826a.525.525,0,0,0-.556,0l-3.279,2.264c-.146.105-.117.263,0,.386l4.085,2.826a.5.5,0,0,0,.527.07Zm4.8-3.317,3.279-2.264a.231.231,0,0,0,0-.386l-4.085-2.826a.573.573,0,0,0-.556,0l-3.279,2.282a.221.221,0,0,0,0,.369l4.085,2.843a.5.5,0,0,0,.527.053Zm4.8-3.317,3.279-2.282a.215.215,0,0,0,0-.369l-4.085-2.843a.525.525,0,0,0-.556,0l-3.279,2.282a.221.221,0,0,0,0,.369l4.085,2.826a.554.554,0,0,0,.527.088Zm-18.1-2.036-3.279,2.282c-.146,0-.117.263,0,.369l4.085,2.843a.5.5,0,0,0,.542,0l3.279-2.264a.231.231,0,0,0,0-.386l-4.085-2.826a.575.575,0,0,0-.571.053Zm4.8-3.317-3.309,2.387a.221.221,0,0,0,0,.369l4.085,2.826a.513.513,0,0,0,.542,0l3.279-2.282a.215.215,0,0,0,0-.369l-4.085-2.826a.5.5,0,0,0-.542-.035Zm19.223-13.3-3.294,2.282c-.132,0-.117.263,0,.369l4.085,2.843a.5.5,0,0,0,.542,0l3.294-2.264a.246.246,0,0,0,0-.386l-4.172-2.738a.547.547,0,0,0-.483-.035Zm-4.8,3.335L148.5,267a.246.246,0,0,0,0,.386l4.085,2.826a.548.548,0,0,0,.542,0l3.279-2.282a.231.231,0,0,0,0-.386l-4.1-2.738a.5.5,0,0,0-.542,0Zm9.6-6.652-3.294,2.282a.228.228,0,0,0,0,.369l4.085,2.826a.513.513,0,0,0,.542,0l3.294-2.282a.229.229,0,0,0,0-.369l-4.085-2.826a.515.515,0,0,0-.5.07Zm-19.223,13.3-3.279,2.264c-.146.105-.117.263,0,.386l4.085,2.826a.5.5,0,0,0,.542,0L146.8,274.6a.231.231,0,0,0,0-.386l-4.085-2.826a.529.529,0,0,0-.571.07Zm4.8-3.335-3.279,2.282a.221.221,0,0,0,0,.369l4.085,2.826a.512.512,0,0,0,.542,0l3.279-2.282c.146,0,.132-.263,0-.369l-4.085-2.826a.541.541,0,0,0-.571.07Zm-2.357,24.257,3.294-2.264a.246.246,0,0,0,0-.386l-4.085-2.826a.5.5,0,0,0-.542,0L140,289.1a.246.246,0,0,0,0,.386l4.085,2.826a.5.5,0,0,0,.512.07ZM115.2,288.049l-4.085-2.826a.513.513,0,0,0-.542,0l-3.294,2.4a.228.228,0,0,0,0,.369l4.085,2.826a.512.512,0,0,0,.542,0l3.294-2.282a.25.25,0,0,0-.029-.421Zm7.613,2.808-4.1-2.826a.5.5,0,0,0-.542,0l-5.051,3.51a.221.221,0,0,0,0,.369l4.085,2.843a.5.5,0,0,0,.542,0l5.051-3.51c.161-.105.146-.105-.015-.316Zm-13.938-8.249-4.085-2.826a.5.5,0,0,0-.542,0l-4.055,2.791a.246.246,0,0,0,0,.386l4.158,2.914a.5.5,0,0,0,.542,0l4.055-2.791a.3.3,0,0,0-.1-.4Zm3.1-2.141a.512.512,0,0,0,.542,0l3.279-2.282a.215.215,0,0,0,0-.369l-4.1-2.826a.512.512,0,0,0-.542,0l-3.279,2.282a.215.215,0,0,0,0,.369Zm17.934,13.568-4.1-2.843a.5.5,0,0,0-.542,0l-6.281,4.423a.231.231,0,0,0,0,.386l4.085,2.826a.525.525,0,0,0,.556,0l6.31-4.37c.117-.07.1-.246-.059-.351Zm3.558,5.617-4.085-2.843a.5.5,0,0,0-.542,0l-4.055,2.791a.246.246,0,0,0,0,.386l4.085,2.826a.5.5,0,0,0,.542,0l4.055-2.791c.161-.105.161-.105-.029-.3Zm14.216-43.88a.548.548,0,0,0,.542,0l3.279-2.282c.146,0,.132-.263,0-.369l-4.085-2.843a.525.525,0,0,0-.556,0l-3.279,2.264a.238.238,0,0,0,0,.386Zm-9.663,6.7a.5.5,0,0,0,.542,0l3.279-2.264a.231.231,0,0,0,0-.386l-4.1-2.826a.5.5,0,0,0-.542,0l-3.279,2.264a.231.231,0,0,0,0,.386Zm-21.3,14.744a.5.5,0,0,0,.542,0l3.279-2.264a.231.231,0,0,0,0-.386l-4.085-2.738a.525.525,0,0,0-.556,0l-3.279,2.264c-.146.105-.117.263,0,.386Zm26.1-18.078a.477.477,0,0,0,.542,0l3.279-2.282a.215.215,0,0,0,0-.369l-4.1-2.826a.512.512,0,0,0-.542,0l-3.279,2.282a.215.215,0,0,0,0,.369Zm-9.619,6.652a.537.537,0,0,0,.556,0l3.279-2.282a.221.221,0,0,0,0-.369l-4.085-2.826a.513.513,0,0,0-.542,0l-3.279,2.282c-.146,0-.132.263,0,.369Zm2.928,34.437a.537.537,0,0,0-.556,0l-5.051,3.51c-.132,0-.117.263,0,.369l4.085,2.826a.548.548,0,0,0,.542,0l5.051-3.51a.215.215,0,0,0,0-.369Zm-9.824-29.663a.548.548,0,0,0,.542,0l3.279-2.282a.215.215,0,0,0,0-.369l-4.085-2.843a.525.525,0,0,0-.556,0l-3.279,2.264a.238.238,0,0,0,0,.386Zm-4.8,3.317a.512.512,0,0,0,.542,0l3.279-2.282c.146,0,.132-.263,0-.369l-4.085-2.826a.537.537,0,0,0-.556,0l-3.279,2.282a.221.221,0,0,0,0,.369Zm103.624-35.244a.548.548,0,0,0-.542,0l-8.1,5.6a.246.246,0,0,0,0,.386l4.085,2.826a.548.548,0,0,0,.542,0l8.1-5.6a.246.246,0,0,0,0-.386ZM214.515,246a.512.512,0,0,0-.542,0l-3.294,2.282a.228.228,0,0,0,0,.369l4.085,2.826a.512.512,0,0,0,.542,0l3.294-2.282c.132,0,.117-.263,0-.369Zm-65.164,43.072,3.294-2.282a.229.229,0,0,0,0-.369l-4.085-2.826a.513.513,0,0,0-.542,0l-3.294,2.282a.228.228,0,0,0,0,.369l4.085,2.826a.479.479,0,0,0,.586,0Zm55.56-36.438a.5.5,0,0,0-.542,0l-3.294,2.264a.246.246,0,0,0,0,.386l4.085,2.826a.548.548,0,0,0,.542,0L209,255.824c.132,0,.117-.263,0-.369Zm25.02-17.306a.477.477,0,0,0-.542,0l-3.294,2.282a.229.229,0,0,0,0,.369l4.158,2.791a.512.512,0,0,0,.542,0l3.294-2.282a.228.228,0,0,0,0-.369Zm8.887-.509-9.882-6.863a.548.548,0,0,0-.542,0l-3.279,2.282a.215.215,0,0,0,0,.369l9.926,6.88a.5.5,0,0,0,.542,0l3.294-2.264c.161-.123.161-.246-.015-.4Zm-51.856,30.242a.5.5,0,0,0-.542,0l-4.055,2.791a.246.246,0,0,0,0,.386l4.085,2.826a.5.5,0,0,0,.542,0l4.055-2.791a.246.246,0,0,0,0-.386Zm12.137-8.39a.537.537,0,0,0-.556,0l-5.051,3.51a.246.246,0,0,0,0,.386l4.085,2.826a.548.548,0,0,0,.542,0l5.051-3.51a.215.215,0,0,0,0-.369Zm-23.263,16.1a.513.513,0,0,0-.542,0l-27.026,18.693a.215.215,0,0,0,0,.369l4.085,2.826a.537.537,0,0,0,.556,0l27.041-18.728c.146,0,.117-.263,0-.369Zm-28.563,19.763a.5.5,0,0,0-.542,0l-4.041,2.791a.231.231,0,0,0,0,.386l4.1,2.826a.5.5,0,0,0,.542,0l4.041-2.791c.146-.105.117-.263,0-.386ZM181.4,268.9a.5.5,0,0,0-.542,0l-4.041,2.791a.231.231,0,0,0,0,.386L180.9,274.9a.573.573,0,0,0,.556,0l4.041-2.808c.132,0,.117-.263,0-.369Zm-39.646,27.5a.5.5,0,0,0-.542,0l-4.041,2.791c-.146.105-.117.263,0,.386l4.085,2.826a.548.548,0,0,0,.542,0l4.041-2.808a.215.215,0,0,0,0-.369Zm50.816-35.1a.512.512,0,0,0-.542,0l-4.055,2.808a.228.228,0,0,0,0,.369l4.085,2.826a.513.513,0,0,0,.542,0l4.055-2.808a.228.228,0,0,0,0-.369Zm17.188-11.988a.548.548,0,0,0-.542,0l-3.294,2.282a.229.229,0,0,0,0,.369l4.085,2.843a.5.5,0,0,0,.542,0l3.294-2.264a.246.246,0,0,0,0-.386Zm10.424-9.232,3.279-2.282a.221.221,0,0,0,0-.369l-4.085-2.826a.513.513,0,0,0-.542,0l-3.279,2.282a.215.215,0,0,0,0,.369l4.085,2.826a.536.536,0,0,0,.542,0Zm-22.3-.737,3.279-2.264a.231.231,0,0,0,0-.386l-4.085-2.826a.573.573,0,0,0-.556,0l-3.279,2.282a.221.221,0,0,0,0,.369l4.085,2.843A.5.5,0,0,0,197.884,239.343ZM187.8,262.476l9.6-6.652c.132,0,.117-.263,0-.369l-4.085-2.843a.5.5,0,0,0-.542,0l-9.6,6.652c-.146,0-.132.263,0,.369l4.085,2.826a.536.536,0,0,0,.542.018Zm27-19.1a.525.525,0,0,0,.556,0l3.279-2.264c.146-.105.117-.263,0-.386l-4.085-2.826a.5.5,0,0,0-.542,0l-3.294,2.334a.231.231,0,0,0,0,.386Zm-5.285-4.019,3.279-2.264a.231.231,0,0,0,0-.386l-4.1-2.826a.548.548,0,0,0-.542,0l-3.279,2.282a.215.215,0,0,0,0,.369l4.085,2.843a.5.5,0,0,0,.586-.018Zm-26.513,26.433,3.279-2.264c.146-.105.117-.263,0-.386l-4.085-2.826a.548.548,0,0,0-.542,0l-3.279,2.282a.231.231,0,0,0,0,.386l4.085,2.826a.526.526,0,0,0,.571-.018Zm21.214-15.024a.477.477,0,0,0,.542,0l3.294-2.282a.228.228,0,0,0,0-.369l-4.143-2.843a.512.512,0,0,0-.542,0l-3.294,2.282c-.132,0-.117.263,0,.369ZM159,282.362l3.294-2.264a.246.246,0,0,0,0-.386l-4.085-2.826a.548.548,0,0,0-.542,0l-3.294,2.282a.246.246,0,0,0,0,.386l4.143,2.808a.5.5,0,0,0,.483,0Zm4.8-3.317,3.294-2.282a.228.228,0,0,0,0-.369l-4.187-2.808a.513.513,0,0,0-.542,0l-3.294,2.282c-.132,0-.117.263,0,.369l4.085,2.826a.518.518,0,0,0,.644.035Zm-9.6,6.652,3.294-2.282c.132,0,.117-.263,0-.369l-4.085-2.843a.5.5,0,0,0-.542,0l-3.294,2.264a.246.246,0,0,0,0,.386l4.085,2.826a.552.552,0,0,0,.542.07Zm19.223-13.3,3.279-2.282a.228.228,0,0,0,0-.369l-4.085-2.826a.512.512,0,0,0-.542,0l-3.279,2.282a.215.215,0,0,0,0,.369l4.085,2.826a.5.5,0,0,0,.542.053ZM168.6,275.71l3.294-2.264a.246.246,0,0,0,0-.386l-4.085-2.826a.5.5,0,0,0-.542,0l-3.294,2.264a.246.246,0,0,0,0,.386l4.085,2.826a.5.5,0,0,0,.542.053Zm9.619-6.635,3.279-2.282c.146,0,.117-.263,0-.369l-4.085-2.843a.5.5,0,0,0-.542,0l-3.279,2.264a.231.231,0,0,0,0,.386l4.085,2.826a.576.576,0,0,0,.542.07Zm20.116-50.462a.5.5,0,0,0,.542,0l3.294-2.264a.246.246,0,0,0,0-.386l-1.083-.755a.525.525,0,0,0-.556,0l-3.279,2.282a.221.221,0,0,0,0,.369Zm-23.527,18.359a.5.5,0,0,0,.542,0l3.294-2.264a.246.246,0,0,0,0-.386l-4.085-2.826a.5.5,0,0,0-.542,0l-3.294,2.264a.246.246,0,0,0,0,.386Zm9.6-6.652a.548.548,0,0,0,.542,0l3.294-2.282c.132,0,.117-.263,0-.369l-4.085-2.843a.5.5,0,0,0-.542,0l-3.294,2.264a.246.246,0,0,0,0,.386Zm-15.46,10.707a.548.548,0,0,0,.542,0l3.279-2.282c.146,0,.117-.263,0-.369l-4.085-2.843a.5.5,0,0,0-.542,0L164.87,237.8a.231.231,0,0,0,0,.386Zm10.658-7.389a.477.477,0,0,0,.542,0l3.25-2.176a.229.229,0,0,0,0-.369l-4.085-2.826a.513.513,0,0,0-.542,0l-3.294,2.282a.228.228,0,0,0,0,.369ZM159.336,247.68a.525.525,0,0,0,.556,0l3.279-2.264c.146-.105.117-.263,0-.386l-4.085-2.826a.5.5,0,0,0-.542,0l-3.279,2.264a.231.231,0,0,0,0,.386Zm4.8-3.317a.525.525,0,0,0,.556,0l3.279-2.282a.221.221,0,0,0,0-.369l-4.085-2.826a.513.513,0,0,0-.542,0l-3.279,2.282c-.146,0-.132.263,0,.369Zm24.6-19.1a.5.5,0,0,0,.542,0L192.555,223a.231.231,0,0,0,0-.386l-1.083-.755a.525.525,0,0,0-.556,0l-3.279,2.264c-.146.105-.117.263,0,.386Zm14.406-9.987a.477.477,0,0,0,.542,0L206.976,213a.228.228,0,0,0,0-.369l-1.083-.755a.525.525,0,0,0-.556,0l-3.279,2.264c-.146.105-.117.263,0,.386Zm8.579,5.95a.548.548,0,0,0,.542,0l3.294-2.282a.246.246,0,0,0,0-.386l-4.085-2.826a.5.5,0,0,0-.542,0L207.634,218a.246.246,0,0,0,0,.386Zm13.264,15.5,3.279-2.282c.146-.105.117-.263,0-.386l-4.085-2.826a.5.5,0,0,0-.542,0l-3.279,2.264a.231.231,0,0,0,0,.386l4.041,2.843A.574.574,0,0,0,224.983,236.728Zm-31.447-14.779a.513.513,0,0,0,.542,0l3.294-2.282c.132,0,.117-.263,0-.369l-1.083-.755a.537.537,0,0,0-.556,0l-3.279,2.282c-.146,0-.117.263,0,.369Zm-39,29.066a.537.537,0,0,0,.556,0l3.279-2.282c.146,0,.117-.263,0-.369l-4.085-2.826a.512.512,0,0,0-.542,0l-3.279,2.282c-.146,0-.132.263,0,.369Z" transform="translate(5520.417 -11625.26)" fill="#37474f"/>
    <path id="Path_601" data-name="Path 601" d="M78.3,341.737a10.251,10.251,0,0,1-3.558-7.161L68.61,211.538a9.275,9.275,0,0,1,3.5-7.512L190.695,121.9a6.378,6.378,0,0,1,6.559,0,10.33,10.33,0,0,1,3.558,7.179l6.134,123.038a9.336,9.336,0,0,1-3.294,7.319L85.066,341.562A6.461,6.461,0,0,1,78.3,341.737Z" transform="translate(5505.807 -11693.832)" fill="#37474f"/>
    <path id="Path_602" data-name="Path 602" d="M78.3,341.737a10.251,10.251,0,0,1-3.558-7.161L68.61,211.538a9.275,9.275,0,0,1,3.5-7.512L190.695,121.9a6.378,6.378,0,0,1,6.559,0,10.33,10.33,0,0,1,3.558,7.179l6.134,123.038a9.336,9.336,0,0,1-3.294,7.319L85.066,341.562A6.461,6.461,0,0,1,78.3,341.737Z" transform="translate(5505.747 -11693.832)" fill="#37474f" opacity="0.4"/>
    <path id="Path_603" data-name="Path 603" d="M76.409,206.61,195,124.485a2.012,2.012,0,0,1,2.575-.308,2.947,2.947,0,0,1,1.2,2.748l6.134,123.038a9.336,9.336,0,0,1-3.294,7.319L83.027,339.408a2.01,2.01,0,0,1-2.563.29,2.945,2.945,0,0,1-1.2-2.73L73.13,213.912A9.186,9.186,0,0,1,76.409,206.61Z" transform="translate(5507.904 -11691.678)" fill="#1e282d"/>
    <path id="Path_604" data-name="Path 604" d="M78.111,206.827,192,128a1.605,1.605,0,0,1,2.058-.25,2.351,2.351,0,0,1,.958,2.2l5.344,107.259a7.474,7.474,0,0,1-2.621,5.845L84.729,321.3a1.628,1.628,0,0,1-2.061.236,2.378,2.378,0,0,1-.984-2.184L75.52,212.636a7.289,7.289,0,0,1,2.591-5.81Z" transform="translate(5509.013 -11688.928)" fill="#fff"/>
    <g id="freepik--Computer--inject-3" transform="translate(5812.328 -11591.106)">
      <path id="Path_605" data-name="Path 605" d="M294.4,268.481l15.182-10.531a10.611,10.611,0,0,0,3.645-9.6l-5.593-34.858,6.617-4.581,33.058,32.067c.439,2.791,10.819,27.082,7.642,40.545-2.811,11.865-19.032,13.146-20.877,14.392L294.4,277.608Z" transform="translate(-201.749 -36.332)" fill="#263238"/>
      <path id="Path_606" data-name="Path 606" d="M321.5,284.123l15.167-10.531a10.585,10.585,0,0,0,3.66-9.6l-5.593-34.84,6.6-4.581,6.4,39.86c.683,5.706-1.474,11.365-5.519,14.48L321.5,293.25Z" transform="translate(-189.174 -24.506)" fill="#263238"/>
      <path id="Path_607" data-name="Path 607" d="M321.5,284.123l15.167-10.531a10.585,10.585,0,0,0,3.66-9.6l-5.593-34.84,6.6-4.581,6.4,39.86c.683,5.706-1.474,11.365-5.519,14.48L321.5,293.25Z" transform="translate(-188.711 -24.472)" fill="#455a64" opacity="0.3"/>
      <path id="Path_608" data-name="Path 608" d="M294.4,242.85l39.675,27.469v9.162L294.4,252.012Z" transform="translate(-201.749 -10.701)" fill="#455a64"/>
      <path id="Path_609" data-name="Path 609" d="M294.4,242.85l39.675,27.469v9.162L294.4,252.012Z" transform="translate(-201.8 -10.7)" fill="#455a64" opacity="0.4"/>
      <path id="Path_610" data-name="Path 610" d="M270.579,111.489a9.608,9.608,0,0,0-3.309,7.179V264.593a9.868,9.868,0,0,0,3.528,7.319L422.515,376.925a5.7,5.7,0,0,0,6.841.163,8.388,8.388,0,0,0,3.3-7.184V223.978a9.831,9.831,0,0,0-3.528-7.319L277.416,111.647a6.452,6.452,0,0,0-6.837-.158Z" transform="translate(-214.338 -110.585)" fill="#37474f"/>
      <path id="Path_611" data-name="Path 611" d="M407.838,329.926a5.7,5.7,0,0,0,6.841.163,8.388,8.388,0,0,0,3.3-7.184V176.98a9.974,9.974,0,0,0-1.025-4.16L298.9,254.524Z" transform="translate(-199.661 -63.587)" fill="#263238"/>
      <path id="Path_612" data-name="Path 612" d="M408.194,329.754a5.692,5.692,0,0,0,6.807.122,8.386,8.386,0,0,0,3.294-7.143l-.659-145.943a10.075,10.075,0,0,0-1.054-4.16L298.89,255.124Z" transform="translate(-199.811 -63.705)" opacity="0.2"/>
      <path id="Path_613" data-name="Path 613" d="M267.27,262.418V116.492c0-2.7,1.581-3.791,3.528-2.457l151.717,105.03a9.831,9.831,0,0,1,3.528,7.319V372.31c0,2.7-1.581,3.791-3.528,2.44L270.8,269.737A9.869,9.869,0,0,1,267.27,262.418Z" transform="translate(-214.338 -108.41)" fill="#455a64"/>
      <path id="Path_614" data-name="Path 614" d="M267.27,262.418V116.492c0-2.7,1.581-3.791,3.528-2.457l151.717,105.03a9.831,9.831,0,0,1,3.528,7.319V372.31c0,2.7-1.581,3.791-3.528,2.44L270.8,269.737A9.869,9.869,0,0,1,267.27,262.418Z" transform="translate(-214.382 -109.509)" fill="#455a64" opacity="0.4"/>
      <path id="Path_615" data-name="Path 615" d="M272.356,117.631l146.52,101.414a7.879,7.879,0,0,1,2.811,5.862v129.55c0,2.159-1.259,3.036-2.811,1.966L272.356,255.009a7.872,7.872,0,0,1-2.826-5.862V119.579C269.53,117.421,270.789,116.543,272.356,117.631Z" transform="translate(-213.289 -105.618)" fill="#fff"/>
      <path id="Path_616" data-name="Path 616" d="M267.3,239.438l-32.648,22.589a8.738,8.738,0,0,0,0,14.041l105.41,72.963a6.651,6.651,0,0,0,7.057,0l32.648-22.589a8.763,8.763,0,0,0,0-14.041l-105.41-72.963A6.627,6.627,0,0,0,267.3,239.438Z" transform="translate(-231.115 -14.047)" fill="#37474f"/>
      <path id="Path_617" data-name="Path 617" d="M307.94,319.211a6.187,6.187,0,0,0,3.528-1.018L344.116,295.6a8.763,8.763,0,0,0,0-14.042l-3.4-2.352H307.94Z" transform="translate(-195.466 16.757)" fill="#263238"/>
      <path id="Path_618" data-name="Path 618" d="M379.117,312.419l-105.41-72.963a6.651,6.651,0,0,0-7.057,0L234,262.063c-1.947,1.334-1.947,3.51,0,4.879l105.41,72.963a6.7,6.7,0,0,0,7.042,0L379.1,317.3A2.754,2.754,0,0,0,379.117,312.419Z" transform="translate(-230.452 -14.03)" fill="#455a64"/>
      <path id="Path_619" data-name="Path 619" d="M323.617,280.006a.548.548,0,0,1-.542,0l-3.235-2.247c-.132,0-.117-.263,0-.369l1.069-.737a.512.512,0,0,1,.542,0l3.235,2.247a.228.228,0,0,1,0,.369Z" transform="translate(-189.988 14.768)" fill="#37474f"/>
      <path id="Path_620" data-name="Path 620" d="M320.387,278.143a.548.548,0,0,1-.542,0L316.61,275.9c-.132,0-.117-.263,0-.369l1.069-.737a.524.524,0,0,1,.527,0l3.25,2.247a.228.228,0,0,1,0,.369Z" transform="translate(-191.487 13.366)" fill="#37474f"/>
      <path id="Path_621" data-name="Path 621" d="M326.846,281.877a.476.476,0,0,1-.527,0l-3.235-2.229a.231.231,0,0,1,0-.386l1.069-.737a.5.5,0,0,1,.542,0l3.235,2.229a.231.231,0,0,1,0,.386Z" transform="translate(-188.488 16.179)" fill="#37474f"/>
      <path id="Path_622" data-name="Path 622" d="M330.089,283.735a.548.548,0,0,1-.542,0l-3.236-2.229a.221.221,0,0,1,0-.369l1.069-.737a.524.524,0,0,1,.527,0l3.25,2.247a.229.229,0,0,1,0,.369Z" transform="translate(-186.987 17.603)" fill="#37474f"/>
      <path id="Path_623" data-name="Path 623" d="M298.439,267.571l-4.041,2.773c-.146.123-.176.281,0,.386l5.475,3.791a.548.548,0,0,0,.542,0l4.026-2.791c.161-.105.176-.263,0-.369l-5.49-3.791A.487.487,0,0,0,298.439,267.571Z" transform="translate(-201.806 7.913)" fill="#37474f"/>
      <path id="Path_624" data-name="Path 624" d="M256.4,243.3l-4.026,2.791c-.161.105-.176.281,0,.369l3.236,2.247a.512.512,0,0,0,.542,0l4.026-2.791c.161-.105.176-.263,0-.369l-3.236-2.229a.5.5,0,0,0-.542-.018Z" transform="translate(-221.311 -10.415)" fill="#37474f"/>
      <path id="Path_625" data-name="Path 625" d="M259.636,245.171l-4.026,2.791c-.161.105-.176.263,0,.369l3.235,2.247a.548.548,0,0,0,.542,0l4.026-2.791c.161-.105.176-.281,0-.369l-3.25-2.247A.524.524,0,0,0,259.636,245.171Z" transform="translate(-219.807 -9.003)" fill="#37474f"/>
      <path id="Path_626" data-name="Path 626" d="M253.59,256.39l4.026-2.791c.161-.123.176-.281,0-.369l-3.133-2.317a.476.476,0,0,0-.527,0L249.93,253.7c-.161.105-.176.281,0,.369l3.089,2.317a.5.5,0,0,0,.571,0Z" transform="translate(-222.443 -4.671)" fill="#37474f"/>
      <path id="Path_627" data-name="Path 627" d="M256.857,258.173l4.026-2.791c.161-.105.176-.263,0-.369l-3.235-2.229a.5.5,0,0,0-.542,0l-4.026,2.791c-.161.105-.176.281,0,.369l3.25,2.247A.489.489,0,0,0,256.857,258.173Z" transform="translate(-220.981 -3.259)" fill="#37474f"/>
      <path id="Path_628" data-name="Path 628" d="M260.1,260.049l4.026-2.791c.146-.105.176-.281,0-.369l-3.236-2.247a.512.512,0,0,0-.542,0l-4.026,2.791c-.161.105-.176.263,0,.369l3.236,2.229A.5.5,0,0,0,260.1,260.049Z" transform="translate(-219.478 -1.854)" fill="#37474f"/>
      <path id="Path_629" data-name="Path 629" d="M263.327,261.92l4.026-2.791c.161-.123.176-.281,0-.369l-3.25-2.247a.476.476,0,0,0-.527,0L259.55,259.3c-.161.105-.176.281,0,.369l3.235,2.247a.5.5,0,0,0,.542,0Z" transform="translate(-217.979 -0.442)" fill="#37474f"/>
      <path id="Path_630" data-name="Path 630" d="M262.866,247.031l-4.026,2.791c-.161.123-.176.281,0,.369l3.25,2.247a.476.476,0,0,0,.527,0l4.026-2.791c.161-.105.176-.281,0-.369l-3.235-2.247a.548.548,0,0,0-.542,0Z" transform="translate(-218.308 -7.598)" fill="#37474f"/>
      <path id="Path_631" data-name="Path 631" d="M266.11,248.895l-4.07,2.791c-.161.105-.176.281,0,.369l3.235,2.247a.512.512,0,0,0,.542,0l4.026-2.791c.146-.105.176-.263,0-.369l-3.235-2.229a.5.5,0,0,0-.5-.018Z" transform="translate(-216.823 -6.18)" fill="#37474f"/>
      <path id="Path_632" data-name="Path 632" d="M289.983,272.152c.161-.105.176-.263,0-.369l-3.235-2.229a.5.5,0,0,0-.542,0l-4.026,2.791c-.161.105-.176.281,0,.369l3.235,2.247a.512.512,0,0,0,.542,0Z" transform="translate(-207.478 9.405)" fill="#37474f"/>
      <path id="Path_633" data-name="Path 633" d="M291.966,263.834l-4.026,2.791c-.161.123-.176.281,0,.369l3.235,2.247a.5.5,0,0,0,.542,0l4.026-2.791c.161-.105.176-.281,0-.369l-3.265-2.264a.5.5,0,0,0-.512.018Z" transform="translate(-204.805 5.085)" fill="#37474f"/>
      <path id="Path_634" data-name="Path 634" d="M277.123,274.422l4.026-2.791c.161-.105.176-.281,0-.369l-3.192-2.229a.512.512,0,0,0-.542,0l-4.026,2.773c-.161.123-.176.281,0,.386l3.25,2.229a.474.474,0,0,0,.483,0Z" transform="translate(-211.557 9.013)" fill="#37474f"/>
      <path id="Path_635" data-name="Path 635" d="M284.4,273.51c.146-.123.176-.281,0-.386l-3.236-2.229a.5.5,0,0,0-.542,0l-4.026,2.791c-.161.105-.176.281,0,.369l3.236,2.247a.512.512,0,0,0,.542,0Z" transform="translate(-210.067 10.417)" fill="#37474f"/>
      <path id="Path_636" data-name="Path 636" d="M288.738,261.976l-4.026,2.791c-.161.105-.19.263,0,.369l3.235,2.229a.5.5,0,0,0,.542,0l4.026-2.791c.161-.105.176-.281,0-.369l-3.235-2.247A.525.525,0,0,0,288.738,261.976Z" transform="translate(-206.306 3.679)" fill="#37474f"/>
      <path id="Path_637" data-name="Path 637" d="M272.566,252.631l-4.026,2.791c-.161.123-.176.281,0,.369l3.25,2.247a.476.476,0,0,0,.527,0l4.026-2.791c.161-.105.176-.281,0-.369l-3.236-2.247a.548.548,0,0,0-.542,0Z" transform="translate(-213.807 -3.369)" fill="#37474f"/>
      <path id="Path_638" data-name="Path 638" d="M285.5,260.1l-4.026,2.791c-.161.105-.176.281,0,.369l3.235,2.247a.488.488,0,0,0,.527,0l4.041-2.773c.146-.123.176-.281,0-.386l-3.235-2.229A.5.5,0,0,0,285.5,260.1Z" transform="translate(-207.807 2.272)" fill="#37474f"/>
      <path id="Path_639" data-name="Path 639" d="M269.316,250.775l-4.026,2.791c-.161.105-.176.263,0,.369l3.235,2.229a.5.5,0,0,0,.542,0l4.026-2.791c.161-.105.176-.281,0-.369l-3.25-2.247a.524.524,0,0,0-.527.018Z" transform="translate(-215.315 -4.777)" fill="#37474f"/>
      <path id="Path_640" data-name="Path 640" d="M275.8,254.5l-4.026,2.791c-.161.105-.176.281,0,.369l3.235,2.247a.488.488,0,0,0,.527,0l4.041-2.791c.146-.105.176-.263,0-.369l-3.235-2.229a.5.5,0,0,0-.542-.017Z" transform="translate(-212.308 -1.957)" fill="#37474f"/>
      <path id="Path_641" data-name="Path 641" d="M279.022,256.38l-3.982,2.791c-.161.105-.176.263,0,.369l3.235,2.229a.5.5,0,0,0,.542,0l4.026-2.791c.161-.105.176-.281,0-.369l-3.25-2.247A.526.526,0,0,0,279.022,256.38Z" transform="translate(-210.791 -0.554)" fill="#37474f"/>
      <path id="Path_642" data-name="Path 642" d="M282.316,258.231l-4.026,2.791c-.161.123-.176.281,0,.369l3.235,2.247a.5.5,0,0,0,.542,0l4.026-2.791c.161-.105.176-.281,0-.369l-3.235-2.247A.548.548,0,0,0,282.316,258.231Z" transform="translate(-209.283 0.86)" fill="#37474f"/>
      <path id="Path_643" data-name="Path 643" d="M269.788,265.649l4.026-2.791c.146-.105.176-.281,0-.369l-3.235-2.247a.512.512,0,0,0-.542,0l-4,2.826c-.161.105-.176.263,0,.369l3.236,2.229a.5.5,0,0,0,.512-.017Z" transform="translate(-214.967 2.375)" fill="#37474f"/>
      <path id="Path_644" data-name="Path 644" d="M266.543,263.773l4.026-2.791c.161-.105.176-.263,0-.369l-3.235-2.229a.5.5,0,0,0-.542,0l-3.982,2.9c-.161.105-.176.281,0,.369l3.25,2.247A.5.5,0,0,0,266.543,263.773Z" transform="translate(-216.466 0.97)" fill="#37474f"/>
      <path id="Path_645" data-name="Path 645" d="M260.366,250.147l-4.026,2.773c-.161.123-.176.281,0,.386l3.236,2.229a.5.5,0,0,0,.542,0l4.026-2.791c.146-.105.176-.281,0-.369l-3.236-2.247A.512.512,0,0,0,260.366,250.147Z" transform="translate(-219.468 -5.256)" fill="#37474f"/>
      <path id="Path_646" data-name="Path 646" d="M257.136,248.271l-4.026,2.791c-.161.105-.176.263,0,.369l3.25,2.247a.524.524,0,0,0,.527,0l4.026-2.791c.161-.105.176-.281,0-.369l-3.236-2.247a.548.548,0,0,0-.542,0Z" transform="translate(-220.967 -6.662)" fill="#37474f"/>
      <path id="Path_647" data-name="Path 647" d="M286.75,270.329c.161-.105.176-.281,0-.369l-3.235-2.247a.476.476,0,0,0-.527,0l-4.026,2.791c-.161.105-.19.281,0,.369l3.235,2.247a.5.5,0,0,0,.542,0Z" transform="translate(-208.974 8.016)" fill="#37474f"/>
      <path id="Path_648" data-name="Path 648" d="M279.487,271.249l4.026-2.791c.146-.105.176-.281,0-.369l-3.236-2.247a.512.512,0,0,0-.542,0l-4.026,2.791c-.161.105-.176.263,0,.369l3.236,2.229a.477.477,0,0,0,.542.018Z" transform="translate(-210.48 6.604)" fill="#37474f"/>
      <path id="Path_649" data-name="Path 649" d="M276.214,269.3l4.026-2.791c.161-.105.176-.263,0-.369l-3.162-2.106a.5.5,0,0,0-.542,0l-4.026,2.791c-.161.105-.176.281,0,.369l3.235,2.247a.528.528,0,0,0,.469-.14Z" transform="translate(-211.965 5.237)" fill="#37474f"/>
      <path id="Path_650" data-name="Path 650" d="M273.027,267.52l4.026-2.791c.161-.123.176-.281,0-.369l-3.25-2.247a.476.476,0,0,0-.527,0l-4.026,2.791c-.161.123-.176.281,0,.369l3.236,2.247a.5.5,0,0,0,.542,0Z" transform="translate(-213.478 3.787)" fill="#37474f"/>
      <path id="Path_651" data-name="Path 651" d="M279.766,261.347l-4.026,2.773c-.161.123-.176.281,0,.386l3.235,2.229a.476.476,0,0,0,.527,0l4.041-2.791c.146-.105.176-.281,0-.369l-3.235-2.247A.513.513,0,0,0,279.766,261.347Z" transform="translate(-210.466 3.202)" fill="#37474f"/>
      <path id="Path_652" data-name="Path 652" d="M266.836,253.871l-4.026,2.791c-.161.105-.176.263,0,.369l3.25,2.247a.524.524,0,0,0,.527,0l4.026-2.791c.161-.105.176-.281,0-.369l-3.235-2.247a.548.548,0,0,0-.542,0Z" transform="translate(-216.466 -2.433)" fill="#37474f"/>
      <path id="Path_653" data-name="Path 653" d="M270.066,255.747l-4.026,2.773c-.161.123-.176.281,0,.386l3.236,2.229a.5.5,0,0,0,.542,0l4.026-2.791c.146-.105.176-.281,0-.369l-3.236-2.247a.513.513,0,0,0-.542.017Z" transform="translate(-214.967 -1.027)" fill="#37474f"/>
      <path id="Path_654" data-name="Path 654" d="M263.606,252.034l-4.026,2.791c-.161.105-.176.281,0,.369l3.236,2.247a.512.512,0,0,0,.542,0l4.026-2.773c.161-.123.176-.281,0-.386l-3.25-2.247A.476.476,0,0,0,263.606,252.034Z" transform="translate(-217.965 -3.826)" fill="#37474f"/>
      <path id="Path_655" data-name="Path 655" d="M276.536,259.483l-4.026,2.738c-.161.105-.176.263,0,.369l3.235,2.247a.548.548,0,0,0,.542,0l4.026-2.791c.161-.105.176-.281,0-.369l-3.235-2.247a.551.551,0,0,0-.542.053Z" transform="translate(-211.965 1.784)" fill="#37474f"/>
      <path id="Path_656" data-name="Path 656" d="M273.316,257.6l-4.026,2.791c-.161.105-.176.281,0,.369l3.235,2.247a.512.512,0,0,0,.542,0l4.026-2.773c.161-.123.176-.281,0-.386l-3.25-2.229A.476.476,0,0,0,273.316,257.6Z" transform="translate(-213.459 0.384)" fill="#37474f"/>
      <path id="Path_657" data-name="Path 657" d="M292.709,268.751l-4.041,2.791c-.146.105-.176.281,0,.369l3.235,2.247a.512.512,0,0,0,.542,0l4.026-2.773c.161-.123.176-.281,0-.386l-3.235-2.229a.476.476,0,0,0-.527-.018Z" transform="translate(-204.465 8.805)" fill="#37474f"/>
      <path id="Path_658" data-name="Path 658" d="M296.909,270.631l-6.559,4.546c-.161.105-.176.281,0,.369l3.235,2.247a.548.548,0,0,0,.542,0l6.559-4.546c.161-.105.19-.263,0-.369l-3.235-2.247A.548.548,0,0,0,296.909,270.631Z" transform="translate(-203.687 10.224)" fill="#37474f"/>
      <path id="Path_659" data-name="Path 659" d="M289.466,271.452l-4.026,2.773c-.161.105-.176.281,0,.369l7.042,4.9a.548.548,0,0,0,.542,0l4.026-2.791c.161-.105.176-.281,0-.369l-7.057-4.879a.5.5,0,0,0-.527,0Z" transform="translate(-205.965 10.842)" fill="#37474f"/>
      <path id="Path_660" data-name="Path 660" d="M283.008,263.153l-4.026,2.791c-.161.105-.19.281,0,.369l3.235,2.247a.512.512,0,0,0,.542,0l4.026-2.773c.161-.123.176-.281,0-.386l-3.235-2.229a.477.477,0,0,0-.542-.018Z" transform="translate(-208.965 4.574)" fill="#37474f"/>
      <path id="Path_661" data-name="Path 661" d="M289.466,266.9l-4.026,2.773c-.161.123-.176.281,0,.369l3.236,2.247a.476.476,0,0,0,.527,0l4.026-2.791c.161-.105.19-.281,0-.369l-3.235-2.247a.512.512,0,0,0-.527.018Z" transform="translate(-205.965 7.395)" fill="#37474f"/>
      <path id="Path_662" data-name="Path 662" d="M286.236,265.031l-4.026,2.791c-.161.105-.176.263,0,.369l3.235,2.247a.549.549,0,0,0,.542,0l4.026-2.791c.161-.105.176-.281,0-.369l-3.235-2.247A.548.548,0,0,0,286.236,265.031Z" transform="translate(-207.464 5.995)" fill="#37474f"/>
      <path id="Path_663" data-name="Path 663" d="M273.907,272.557l4.026-2.791c.161-.105.176-.281,0-.369l-3.25-2.247a.524.524,0,0,0-.527,0l-4.026,2.791c-.161.105-.176.263,0,.369l3.235,2.247A.548.548,0,0,0,273.907,272.557Z" transform="translate(-213.069 7.596)" fill="#37474f"/>
      <path id="Path_664" data-name="Path 664" d="M291.149,268.856l3.235,2.247a.488.488,0,0,0,.527,0l4.026-2.791c.161-.105.19-.263,0-.369l-3.236-2.229a.5.5,0,0,0-.542,0l-4.026,2.791A.192.192,0,0,0,291.149,268.856Z" transform="translate(-203.314 6.505)" fill="#37474f"/>
      <path id="Path_665" data-name="Path 665" d="M248.673,248.79l4.978,3.51a.5.5,0,0,0,.542,0l4.026-2.791c.146-.105.176-.281,0-.369l-4.978-3.51a.548.548,0,0,0-.542,0l-4.026,2.791A.215.215,0,0,0,248.673,248.79Z" transform="translate(-223.016 -8.655)" fill="#37474f"/>
      <path id="Path_666" data-name="Path 666" d="M257.146,243.735l3.982,2.756a.512.512,0,0,0,.542,0l4.1-2.808c.161-.123.176-.281,0-.386l-4-2.756a.524.524,0,0,0-.527,0l-4.026,2.791C256.985,243.472,256.985,243.63,257.146,243.735Z" transform="translate(-219.088 -12.499)" fill="#37474f"/>
      <path id="Path_667" data-name="Path 667" d="M244.482,250.98,250.7,255.3a.548.548,0,0,0,.542,0l4.026-2.791c.161-.123.176-.281,0-.369l-6.237-4.318a.548.548,0,0,0-.542,0l-4.026,2.791C244.365,250.734,244.336,250.892,244.482,250.98Z" transform="translate(-224.959 -7.002)" fill="#37474f"/>
      <path id="Path_668" data-name="Path 668" d="M283.6,278.1l3.982,2.773a.548.548,0,0,0,.542,0l4.026-2.791c.161-.105.176-.263,0-.369l-4-2.756a.512.512,0,0,0-.527,0l-4.026,2.791A.212.212,0,0,0,283.6,278.1Z" transform="translate(-206.804 13.493)" fill="#37474f"/>
      <path id="Path_669" data-name="Path 669" d="M240.551,253.268l3.982,2.756a.548.548,0,0,0,.542,0l4.026-2.791c.161-.123.176-.281,0-.369l-3.982-2.773a.548.548,0,0,0-.542,0l-4.026,2.791C240.434,253,240.4,253.162,240.551,253.268Z" transform="translate(-226.782 -5.287)" fill="#37474f"/>
      <path id="Path_670" data-name="Path 670" d="M284.143,254.238c.161-.105.176-.281,0-.369l-3.25-2.247a.488.488,0,0,0-.527,0L276.34,254.4c-.161.123-.176.281,0,.386l3.235,2.229a.5.5,0,0,0,.542,0Z" transform="translate(-210.188 -4.134)" fill="#37474f"/>
      <path id="Path_671" data-name="Path 671" d="M290.613,257.966c.146-.105.176-.263,0-.369l-3.235-2.247a.548.548,0,0,0-.542,0l-4.026,2.791c-.161.105-.176.281,0,.369l3.235,2.247a.548.548,0,0,0,.542,0Z" transform="translate(-207.186 -1.315)" fill="#37474f"/>
      <path id="Path_672" data-name="Path 672" d="M287.373,256.159c.161-.123.176-.281,0-.369l-3.235-2.247a.5.5,0,0,0-.542,0l-4.026,2.791c-.161.105-.176.281,0,.369l3.25,2.247a.512.512,0,0,0,.527,0Z" transform="translate(-208.689 -2.685)" fill="#37474f"/>
      <path id="Path_673" data-name="Path 673" d="M293.843,259.838c.161-.105.176-.281,0-.369l-3.25-2.247a.488.488,0,0,0-.527,0l-4.026,2.826c-.161.105-.176.263,0,.369l3.236,2.229a.5.5,0,0,0,.542,0Z" transform="translate(-205.687 0.095)" fill="#37474f"/>
      <path id="Path_674" data-name="Path 674" d="M279.04,279.625c-.161.105-.176.281,0,.369l4.978,3.51a.548.548,0,0,0,.542,0l4.026-2.791c.161-.105.176-.281,0-.369l-4.992-3.51a.476.476,0,0,0-.527,0Z" transform="translate(-208.935 14.903)" fill="#37474f"/>
      <path id="Path_675" data-name="Path 675" d="M279.485,251.558c.146-.105.176-.263,0-.369l-3.148-2.159a.548.548,0,0,0-.542,0l-4.026,2.791c-.161.105-.176.263,0,.369l3.235,2.247a.524.524,0,0,0,.527,0Z" transform="translate(-212.308 -6.088)" fill="#37474f"/>
      <path id="Path_676" data-name="Path 676" d="M276.313,249.739c.161-.123.176-.281,0-.386l-3.235-2.229a.5.5,0,0,0-.542,0l-4.026,2.791c-.161.105-.176.281,0,.369l3.25,2.247a.488.488,0,0,0,.527,0Z" transform="translate(-213.821 -7.534)" fill="#37474f"/>
      <path id="Path_677" data-name="Path 677" d="M269.858,246c.146-.105.176-.263,0-.369l-3.235-2.247a.548.548,0,0,0-.542,0l-4.041,2.9c-.161.105-.176.263,0,.369l3.235,2.247a.548.548,0,0,0,.542,0Z" transform="translate(-216.823 -10.355)" fill="#37474f"/>
      <path id="Path_678" data-name="Path 678" d="M273.083,247.868c.161-.105.176-.281,0-.369l-3.25-2.247a.488.488,0,0,0-.527,0l-4.026,2.773c-.161.123-.176.281,0,.386l3.235,2.229a.5.5,0,0,0,.542,0Z" transform="translate(-215.32 -8.945)" fill="#37474f"/>
      <path id="Path_679" data-name="Path 679" d="M270.668,270.683l4.026-2.773c.161-.123.176-.281,0-.386l-3.206-2.229a.5.5,0,0,0-.542,0l-4.026,2.791c-.161.105-.176.281,0,.369l3.235,2.247a.511.511,0,0,0,.512-.018Z" transform="translate(-214.559 6.188)" fill="#37474f"/>
      <path id="Path_680" data-name="Path 680" d="M244.82,259.913c-.161.105-.176.281,0,.369l3.982,2.773a.548.548,0,0,0,.542,0l4.026-2.791c.146-.105.176-.281,0-.369l-3.982-2.861a.5.5,0,0,0-.542,0Z" transform="translate(-224.814 -0.05)" fill="#37474f"/>
      <path id="Path_681" data-name="Path 681" d="M236.648,255.164c-.146.105-.176.263,0,.369l4.978,3.51a.5.5,0,0,0,.542,0l4.026-2.791c.161-.105.176-.281,0-.369l-4.978-3.51a.513.513,0,0,0-.542,0Z" transform="translate(-228.603 -3.568)" fill="#37474f"/>
      <path id="Path_682" data-name="Path 682" d="M248.57,262.04c-.161.123-.176.281,0,.369l26.66,18.464a.524.524,0,0,0,.527,0l4.026-2.791c.161-.105.19-.263,0-.369l-26.66-18.482a.512.512,0,0,0-.527,0Z" transform="translate(-223.074 1.615)" fill="#37474f"/>
      <path id="Path_683" data-name="Path 683" d="M271.54,275.3c-.161.105-.176.263,0,.369l3.982,2.756a.512.512,0,0,0,.542,0l4.026-2.773c.161-.123.176-.281,0-.386l-3.982-2.756a.548.548,0,0,0-.542,0Z" transform="translate(-212.415 11.644)" fill="#37474f"/>
      <path id="Path_684" data-name="Path 684" d="M267.788,273.126c-.146.123-.176.281,0,.386l3.982,2.756a.512.512,0,0,0,.542,0l4.026-2.791c.161-.105.176-.263,0-.369l-3.982-2.756a.488.488,0,0,0-.527,0Z" transform="translate(-214.154 10.01)" fill="#37474f"/>
      <path id="Path_685" data-name="Path 685" d="M275.28,277.469c-.161.105-.176.263,0,.369l3.982,2.756a.476.476,0,0,0,.527,0l4.041-2.791c.146-.123.176-.281,0-.369l-3.982-2.773a.548.548,0,0,0-.542,0Z" transform="translate(-210.68 13.268)" fill="#37474f"/>
      <path id="Path_686" data-name="Path 686" d="M241.04,257.715c-.161.105-.176.281,0,.369l3.982,2.756a.5.5,0,0,0,.542,0l4.026-2.791c.161-.105.176-.281,0-.369l-3.982-2.756a.5.5,0,0,0-.542,0Z" transform="translate(-226.568 -1.643)" fill="#37474f"/>
      <path id="Path_687" data-name="Path 687" d="M289.875,282.5l4.026-2.791c.161-.105.176-.263,0-.369l-9.414-6.547a.5.5,0,0,0-.542,0l-4.026,2.791c-.161.123-.176.281,0,.369l9.472,6.564A.546.546,0,0,0,289.875,282.5Z" transform="translate(-208.527 11.852)" fill="#37474f"/>
      <path id="Path_688" data-name="Path 688" d="M248.037,257.629l4.026-2.791c.161-.105.176-.281,0-.369l-3.236-2.247a.513.513,0,0,0-.542,0L244.26,255c-.161.123-.176.281,0,.386l3.25,2.229a.476.476,0,0,0,.527.018Z" transform="translate(-225.074 -3.681)" fill="#37474f"/>
      <path id="Path_689" data-name="Path 689" d="M264.237,266.957l4.026-2.791c.161-.105.176-.263,0-.369l-3.25-2.247a.524.524,0,0,0-.527,0l-4.026,2.791c-.161.105-.176.263,0,.369l3.235,2.247A.548.548,0,0,0,264.237,266.957Z" transform="translate(-217.557 3.367)" fill="#37474f"/>
      <path id="Path_690" data-name="Path 690" d="M260.976,265.083,265,262.31c.161-.123.176-.281,0-.386l-3.235-2.229a.5.5,0,0,0-.542,0l-4.026,2.791c-.146.105-.176.281,0,.369l3.235,2.247a.513.513,0,0,0,.542-.018Z" transform="translate(-219.068 1.959)" fill="#37474f"/>
      <path id="Path_691" data-name="Path 691" d="M267.423,268.829l4.026-2.791c.161-.105.176-.281,0-.369l-3.235-2.247a.512.512,0,0,0-.542,0l-3.982,2.826c-.161.123-.176.281,0,.386l3.25,2.229A.475.475,0,0,0,267.423,268.829Z" transform="translate(-216.058 4.777)" fill="#37474f"/>
      <path id="Path_692" data-name="Path 692" d="M254.507,261.357l4.026-2.791c.161-.105.176-.263,0-.369l-3.25-2.247a.523.523,0,0,0-.527,0l-4.026,2.791c-.161.105-.176.263,0,.369l3.235,2.247A.548.548,0,0,0,254.507,261.357Z" transform="translate(-222.072 -0.862)" fill="#37474f"/>
      <path id="Path_693" data-name="Path 693" d="M257.7,263.229l4.026-2.791c.161-.105.176-.281,0-.369l-3.236-2.247a.512.512,0,0,0-.542,0l-3.909,2.808c-.161.123-.176.281,0,.386l3.25,2.229a.472.472,0,0,0,.41-.018Z" transform="translate(-220.536 0.548)" fill="#37474f"/>
      <path id="Path_694" data-name="Path 694" d="M251.236,259.483l4.026-2.773c.161-.123.176-.281,0-.386l-3.236-2.229a.5.5,0,0,0-.542,0l-4.026,2.791c-.146.105-.176.281,0,.369l3.236,2.247A.513.513,0,0,0,251.236,259.483Z" transform="translate(-223.587 -2.27)" fill="#37474f"/>
      <path id="Path_695" data-name="Path 695" d="M302.837,280.187l4.026-2.791c.161-.105.176-.281,0-.369l-3.25-2.247a.524.524,0,0,0-.527,0l-4.026,2.791c-.161.105-.176.263,0,.369l3.235,2.247a.548.548,0,0,0,.542,0Z" transform="translate(-199.645 13.358)" fill="#37474f"/>
      <path id="Path_696" data-name="Path 696" d="M307.037,272.534l-4,2.791c-.161.105-.176.281,0,.369l3.235,2.247a.548.548,0,0,0,.542,0l4.026-2.791c.161-.105.176-.263,0-.369l-3.25-2.247A.525.525,0,0,0,307.037,272.534Z" transform="translate(-197.798 11.656)" fill="#37474f"/>
      <path id="Path_697" data-name="Path 697" d="M310.335,274.384l-4.085,2.861c-.161.123-.176.281,0,.386l3.25,2.229a.476.476,0,0,0,.527,0l4.026-2.791c.161-.105.176-.281,0-.369l-3.236-2.247A.515.515,0,0,0,310.335,274.384Z" transform="translate(-196.309 13.088)" fill="#37474f"/>
      <path id="Path_698" data-name="Path 698" d="M306.067,282.059l4.026-2.791c.161-.105.176-.281,0-.369l-3.235-2.247a.512.512,0,0,0-.542,0l-4.026,2.773c-.161.123-.176.281,0,.386l3.25,2.229A.476.476,0,0,0,306.067,282.059Z" transform="translate(-198.146 14.768)" fill="#37474f"/>
      <path id="Path_699" data-name="Path 699" d="M303.806,270.664l-4.026,2.791c-.161.105-.176.281,0,.369l3.235,2.247a.548.548,0,0,0,.542,0l4.026-2.791c.161-.123.176-.281,0-.369l-3.235-2.247a.5.5,0,0,0-.542,0Z" transform="translate(-199.311 10.243)" fill="#37474f"/>
      <path id="Path_700" data-name="Path 700" d="M284.038,282.532c-.146.105-.176.263,0,.369l3.235,2.247a.549.549,0,0,0,.542,0l4.026-2.791c.161-.105.176-.263,0-.369l-3.235-2.247a.548.548,0,0,0-.542,0Z" transform="translate(-206.613 17.104)" fill="#37474f"/>
      <path id="Path_701" data-name="Path 701" d="M290.53,286.227c-.161.105-.176.281,0,.369l3.25,2.247a.488.488,0,0,0,.527,0l4.026-2.773c.161-.123.176-.281,0-.386l-3.236-2.229a.5.5,0,0,0-.542,0Z" transform="translate(-203.603 19.902)" fill="#37474f"/>
      <path id="Path_702" data-name="Path 702" d="M287.3,284.394c-.161.123-.176.281,0,.386l3.235,2.229a.5.5,0,0,0,.542,0l4.026-2.791c.161-.105.176-.281,0-.369l-3.25-2.247a.488.488,0,0,0-.527,0Z" transform="translate(-205.102 18.506)" fill="#37474f"/>
      <path id="Path_703" data-name="Path 703" d="M299.607,278.353l4.026-2.773c.161-.123.176-.281,0-.386l-3.235-2.229a.5.5,0,0,0-.542,0l-4.026,2.791c-.161.105-.176.281,0,.369l3.235,2.229a.512.512,0,0,0,.542,0Z" transform="translate(-201.144 11.98)" fill="#37474f"/>
      <path id="Path_704" data-name="Path 704" d="M299,281.938c.161-.105.176-.281,0-.369l-3.25-2.247a.488.488,0,0,0-.527,0L291.2,282.1c-.161.123-.176.281,0,.386l3.235,2.229a.5.5,0,0,0,.542,0Z" transform="translate(-203.292 16.784)" fill="#37474f"/>
      <path id="Path_705" data-name="Path 705" d="M318.77,274.249c.161-.123.176-.281,0-.386l-3.235-2.229a.5.5,0,0,0-.542,0l-3.953,2.808c-.161.105-.176.281,0,.369l3.235,2.247a.512.512,0,0,0,.542,0Z" transform="translate(-194.086 10.976)" fill="#37474f"/>
      <path id="Path_706" data-name="Path 706" d="M312.333,270.506c.146-.105.176-.263,0-.369l-3.235-2.247a.548.548,0,0,0-.542,0l-4.026,2.791c-.161.105-.176.281,0,.369l3.235,2.352a.549.549,0,0,0,.542,0Z" transform="translate(-197.107 8.155)" fill="#37474f"/>
      <path id="Path_707" data-name="Path 707" d="M315.563,272.378c.161-.105.176-.281,0-.369l-3.25-2.247a.488.488,0,0,0-.527,0l-4.026,2.773c-.161.123-.176.281,0,.386L311,275.152a.5.5,0,0,0,.542,0Z" transform="translate(-195.608 9.565)" fill="#37474f"/>
      <path id="Path_708" data-name="Path 708" d="M320.466,280.267l-4.026,2.773c-.161.123-.176.281,0,.386l3.235,2.229a.5.5,0,0,0,.542,0l4.026-2.791c.161-.105.176-.281,0-.369l-3.235-2.247A.513.513,0,0,0,320.466,280.267Z" transform="translate(-191.58 17.49)" fill="#37474f"/>
      <path id="Path_709" data-name="Path 709" d="M313.21,281.231c-.161.105-.176.263,0,.369l3.235,2.247a.548.548,0,0,0,.542,0l4.026-2.791c.161-.105.176-.263,0-.369l-3.25-2.247a.524.524,0,0,0-.527,0Z" transform="translate(-193.079 16.122)" fill="#37474f"/>
      <path id="Path_710" data-name="Path 710" d="M309.1,288.359l4.026-2.791c.161-.105.176-.281,0-.369l-3.25-2.247a.488.488,0,0,0-.527,0l-4.026,2.791c-.161.105-.176.263,0,.369l3.235,2.229A.5.5,0,0,0,309.1,288.359Z" transform="translate(-196.74 19.526)" fill="#37474f"/>
      <path id="Path_711" data-name="Path 711" d="M316.237,287.917l4.026-2.791c.161-.105.176-.281,0-.369l-3.235-2.247a.548.548,0,0,0-.542,0L312.46,285.3c-.161.123-.176.281,0,.369l3.235,2.247a.5.5,0,0,0,.542,0Z" transform="translate(-193.427 19.196)" fill="#37474f"/>
      <path id="Path_712" data-name="Path 712" d="M309.28,283.451c-.161.105-.176.263,0,.369l3.235,2.247a.548.548,0,0,0,.542,0l4.026-2.791c.161-.105.176-.281,0-.369l-3.25-2.247a.524.524,0,0,0-.527,0Z" transform="translate(-194.903 17.799)" fill="#37474f"/>
      <path id="Path_713" data-name="Path 713" d="M316.353,287.4c.161-.123.176-.281,0-.369l-3.236-2.247a.5.5,0,0,0-.542,0l-4.026,2.791c-.161.105-.176.281,0,.369l3.236,2.247a.548.548,0,0,0,.542,0Z" transform="translate(-195.242 20.907)" fill="#37474f"/>
      <path id="Path_714" data-name="Path 714" d="M294.25,288.4c-.161.105-.176.263,0,.369l7.964,5.511a.5.5,0,0,0,.542,0l4.026-2.791c.161-.105.176-.281,0-.369l-7.979-5.529a.548.548,0,0,0-.542,0Z" transform="translate(-201.877 21.522)" fill="#37474f"/>
      <path id="Path_715" data-name="Path 715" d="M300.72,292.117c-.161.105-.176.281,0,.369l3.25,2.247a.488.488,0,0,0,.527,0l4.026-2.773c.161-.123.176-.281,0-.386l-3.235-2.229a.5.5,0,0,0-.542,0Z" transform="translate(-198.875 24.35)" fill="#37474f"/>
      <path id="Path_716" data-name="Path 716" d="M308.383,292.458l4.026-2.773c.161-.123.176-.281,0-.386l-3.192-2.264a.5.5,0,0,0-.542,0l-4.026,2.791c-.161.105-.176.281,0,.369l3.25,2.247a.486.486,0,0,0,.483.018Z" transform="translate(-197.051 22.606)" fill="#37474f"/>
      <path id="Path_717" data-name="Path 717" d="M314,276.521l-4.026,2.791c-.161.105-.176.281,0,.369l3.235,2.247a.488.488,0,0,0,.527,0l4.041-2.773c.146-.123.176-.281,0-.386l-3.235-2.229a.5.5,0,0,0-.542-.018Z" transform="translate(-194.583 14.672)" fill="#37474f"/>
      <path id="Path_718" data-name="Path 718" d="M310.066,278.791l-4.026,2.791c-.161.105-.176.281,0,.369l3.236,2.247a.512.512,0,0,0,.542,0l4.026-2.773c.146-.123.176-.281,0-.386l-3.236-2.229A.5.5,0,0,0,310.066,278.791Z" transform="translate(-196.406 16.387)" fill="#37474f"/>
      <path id="Path_719" data-name="Path 719" d="M305.963,285.926c.146-.105.176-.263,0-.369l-3.235-2.247a.548.548,0,0,0-.542,0L298.16,286.1c-.161.105-.176.263,0,.369l3.235,2.247a.549.549,0,0,0,.542,0Z" transform="translate(-200.063 19.8)" fill="#37474f"/>
      <path id="Path_720" data-name="Path 720" d="M305.858,286.454l4.026-2.791c.146-.105.176-.263,0-.369l-3.206-2.264a.548.548,0,0,0-.542,0l-4.026,2.791c-.161.105-.176.281,0,.369l3.235,2.247a.511.511,0,0,0,.512.018Z" transform="translate(-198.23 18.078)" fill="#37474f"/>
      <path id="Path_721" data-name="Path 721" d="M325.337,286.613l-3.236-2.229a.5.5,0,0,0-.542,0l-9.78,6.775c-.161.105-.176.281,0,.369l3.236,2.247a.548.548,0,0,0,.542,0l9.78-6.775C325.5,286.877,325.527,286.719,325.337,286.613Z" transform="translate(-193.743 20.604)" fill="#37474f"/>
      <path id="Path_722" data-name="Path 722" d="M303.92,296.142l3.235,2.247a.549.549,0,0,0,.542,0l9.78-6.775c.161-.105.176-.263,0-.369l-3.148-2.334a.548.548,0,0,0-.542,0l-9.78,6.775C303.789,295.826,303.774,295.984,303.92,296.142Z" transform="translate(-197.376 24.029)" fill="#37474f"/>
      <path id="Path_723" data-name="Path 723" d="M327.453,284.729c.146-.123.176-.281,0-.386l-3.235-2.229a.5.5,0,0,0-.542,0l-4.026,2.791c-.161.105-.176.281,0,.369l3.235,2.247a.512.512,0,0,0,.542,0Z" transform="translate(-190.091 18.89)" fill="#37474f"/>
      <path id="Path_724" data-name="Path 724" d="M305.167,290.589l4.026-2.791c.161-.105.176-.281,0-.369l-3.25-2.247a.488.488,0,0,0-.527,0l-4.026,2.773c-.161.123-.176.281,0,.386l3.235,2.229A.5.5,0,0,0,305.167,290.589Z" transform="translate(-198.564 21.21)" fill="#37474f"/>
      <path id="Path_725" data-name="Path 725" d="M298.755,262.716c.161-.105.176-.263,0-.369l-3.206-2.317a.524.524,0,0,0-.527,0l-3.982,2.9c-.161.105-.176.263,0,.369l3.235,2.247a.548.548,0,0,0,.542,0Z" transform="translate(-203.367 2.219)" fill="#37474f"/>
      <path id="Path_726" data-name="Path 726" d="M305.253,266.43c.146-.123.176-.281,0-.386l-3.235-2.229a.5.5,0,0,0-.542,0L297.45,266.6c-.161.105-.176.281,0,.369l3.236,2.247a.512.512,0,0,0,.542,0Z" transform="translate(-200.392 5.07)" fill="#37474f"/>
      <path id="Path_727" data-name="Path 727" d="M302.013,264.559c.161-.105.176-.281,0-.369l-3.235-2.247a.513.513,0,0,0-.542,0l-4.026,2.773c-.161.123-.176.281,0,.386l3.25,2.229a.476.476,0,0,0,.527,0Z" transform="translate(-201.896 3.659)" fill="#37474f"/>
      <path id="Path_728" data-name="Path 728" d="M308.513,268.286c.161-.105.176-.263,0-.369l-3.25-2.247a.524.524,0,0,0-.527,0l-4.026,2.791c-.161.105-.176.263,0,.369l3.235,2.247a.548.548,0,0,0,.542,0Z" transform="translate(-198.88 6.479)" fill="#37474f"/>
    </g>
    <path id="Path_729" data-name="Path 729" d="M366.68,132.139v109.3a9.868,9.868,0,0,0,3.528,7.319l105.41,72.963c1.947,1.352,3.514.263,3.514-2.44v-109.3a9.82,9.82,0,0,0-3.514-7.319L370.208,129.7C368.261,128.348,366.68,129.436,366.68,132.139Z" transform="translate(5644.119 -11687.695)" fill="#37474f"/>
    <path id="Path_730" data-name="Path 730" d="M370.208,245.612l105.41,72.963c1.947,1.352,3.514.263,3.514-2.44V211.122L366.68,133.28V238.293A9.831,9.831,0,0,0,370.208,245.612Z" transform="translate(5644.119 -11684.553)" fill="#455a64"/>
    <path id="Path_731" data-name="Path 731" d="M373.323,142.089l35.459,24.573a5.891,5.891,0,0,1,2.123,4.388v7.881c0,1.632-.952,2.282-2.123,1.474l-35.459-24.573a5.891,5.891,0,0,1-2.123-4.388v-7.881C371.2,141.931,372.152,141.282,373.323,142.089Z" transform="translate(5646.216 -11678.162)" fill="#ebebeb"/>
    <path id="Path_732" data-name="Path 732" d="M439.822,171.963a3.815,3.815,0,0,1,1.347,2.826c0,1.036-.6,1.457-1.347.93a3.69,3.69,0,0,1-1.362-2.808C438.46,171.875,439.06,171.454,439.822,171.963Z" transform="translate(5677.426 -11655.503)" fill="#fafafa"/>
    <path id="Path_733" data-name="Path 733" d="M436.137,169.843a3.826,3.826,0,0,1,1.362,2.826c0,1.036-.615,1.457-1.362.93a3.7,3.7,0,0,1-1.347-2.808C434.79,169.755,435.39,169.334,436.137,169.843Z" transform="translate(5675.724 -11657.104)" fill="#fafafa"/>
    <path id="Path_734" data-name="Path 734" d="M432.432,167.723a3.815,3.815,0,0,1,1.347,2.826c0,1.036-.6,1.457-1.347.93a3.69,3.69,0,0,1-1.362-2.808C431.129,167.635,431.743,167.214,432.432,167.723Z" transform="translate(5673.997 -11658.705)" fill="#fafafa"/>
    <path id="Path_735" data-name="Path 735" d="M373.323,152.523l48.693,33.7a5.845,5.845,0,0,1,2.108,4.318c0,1.58-.937,2.194-2.108,1.387l-48.693-33.7a5.8,5.8,0,0,1-2.123-4.318C371.2,152.33,372.152,151.715,373.323,152.523Z" transform="translate(5646.216 -11670.289)" fill="#ebebeb"/>
    <path id="Path_736" data-name="Path 736" d="M373.323,159.753l48.693,33.7a5.789,5.789,0,0,1,2.108,4.318c0,1.58-.937,2.194-2.108,1.387l-48.693-33.7a5.857,5.857,0,0,1-2.123-4.318C371.2,159.56,372.152,158.945,373.323,159.753Z" transform="translate(5646.216 -11664.829)" fill="#ebebeb"/>
    <path id="Path_737" data-name="Path 737" d="M373.323,166.973l48.693,33.664a5.845,5.845,0,0,1,2.108,4.318c0,1.58-.937,2.194-2.108,1.387l-48.693-33.7a5.8,5.8,0,0,1-2.123-4.318C371.2,166.78,372.152,166.166,373.323,166.973Z" transform="translate(5646.216 -11659.377)" fill="#ebebeb"/>
    <path id="Path_738" data-name="Path 738" d="M373.323,174.2l48.693,33.7a5.789,5.789,0,0,1,2.108,4.318c0,1.562-.937,2.194-2.108,1.387l-48.693-33.7a5.856,5.856,0,0,1-2.123-4.318C371.2,174.01,372.152,173.4,373.323,174.2Z" transform="translate(5646.216 -11653.917)" fill="#ebebeb"/>
    <path id="Path_739" data-name="Path 739" d="M373.995,184.221l93.6,64.784a7.733,7.733,0,0,1,2.84,5.775v10.531c0,2.159-1.288,3.036-2.855,1.948L374.1,202.44a7.887,7.887,0,0,1-2.826-5.845V186.064C371.169,183.94,372.443,183.063,373.995,184.221Z" transform="translate(5646.247 -11646.471)" fill="#ebebeb"/>
    <path id="Path_740" data-name="Path 740" d="M413.978,165.556l35.312,24.573a6.008,6.008,0,0,1,2.123,4.406l.146,58.132c0,1.615-.937,2.282-2.108,1.474l-35.459-24.573a5.891,5.891,0,0,1-2.123-4.388V167.013C411.87,165.4,412.822,164.819,413.978,165.556Z" transform="translate(5665.088 -11660.417)" fill="#fafafa"/>
    <path id="Path_741" data-name="Path 741" d="M418.487,190.1c5.022,3.51,9.092.649,9.092-6.3a25.571,25.571,0,0,0-2.547-10.531l-11.053-7.705c-1.157-.807-2.108-.158-2.108,1.457v14.515a21.649,21.649,0,0,0,6.617,8.565Z" transform="translate(5665.088 -11660.438)" fill="#263238"/>
    <path id="Path_742" data-name="Path 742" d="M449.858,212.063h0l-6.647-27.188c-.5-2.071-1.581-2.194-2.416-.281l-9.736,22.273-3.967-12.708c-.63-2.018-1.742-2.071-2.489-.105l-9.223,24.1h0l32.443,22.466a1.187,1.187,0,0,0,2.035-.79Z" transform="translate(5666.717 -11646.826)" fill="#263238"/>
    <path id="Path_743" data-name="Path 743" d="M193.276,120.964l40.671-28.083c1.552-1.088,2.811-.211,2.811,1.948V196.911a7.9,7.9,0,0,1-2.811,5.862l-40.671,28.083c-1.552,1.071-2.826.193-2.826-1.966v-102.1A7.921,7.921,0,0,1,193.276,120.964Z" transform="translate(5562.344 -11715.414)" fill="#263238"/>
    <path id="Path_744" data-name="Path 744" d="M190.45,134.02l46.307-32.05v73.261l-46.307,32.05Z" transform="translate(5562.344 -11708.197)" fill="#fafafa"/>
    <path id="Path_745" data-name="Path 745" d="M207.629,143.714c.5-2.071,1.7-2.282,2.679-.474l4.948,9.162,9.282-33.348c.571-2.054,1.7-2.159,2.533-.246l6.822,15.8v28.838l-37.274,25.8Z" transform="translate(5565.207 -11696.515)" fill="#455a64"/>
    <path id="Path_746" data-name="Path 746" d="M190.459,142.992a6.316,6.316,0,0,0,6.617-1.053c5.876-4.581,9.575-12.25,9.955-20.641a10.486,10.486,0,0,0-1.962-6.828l-14.64,10.11Z" transform="translate(5562.334 -11698.758)" fill="#455a64"/>
    <path id="Path_747" data-name="Path 747" d="M195.761,110.682c1.332-.93,2.416-.176,2.416,1.667a6.664,6.664,0,0,1-2.416,4.985c-1.332.913-2.4.176-2.4-1.755a6.671,6.671,0,0,1,2.4-4.9Z" transform="translate(5569.704 -11705.288)" fill="#fafafa"/>
    <g id="Group_909" data-name="Group 909" transform="translate(5769.85 -11608.465)">
      <path id="Path_748" data-name="Path 748" d="M200.11,112.252l13.572-9.39c.556-.369,1.01-.105,1.01.614a2.713,2.713,0,0,1-1.01,2l-13.572,9.39c-.556.386-1.01.105-1.01-.614a2.713,2.713,0,0,1,1.01-2Z" transform="translate(-199.1 -102.695)" fill="#fafafa"/>
      <path id="Path_749" data-name="Path 749" d="M200.11,113.03l7.467-5.266c.556-.386,1.01-.105,1.01.614a2.712,2.712,0,0,1-1.01,2l-7.467,5.266c-.556.386-1.01.123-1.01-.6a2.717,2.717,0,0,1,1.01-2.018Z" transform="translate(-199.1 -98.998)" fill="#fafafa"/>
    </g>
    <path id="Path_754" data-name="Path 754" d="M214.137,96.139v109.3a9.838,9.838,0,0,1-3.514,7.319l-105.41,72.963c-1.947,1.352-3.514.263-3.514-2.44v-109.3a9.819,9.819,0,0,1,3.514-7.319L210.623,93.7C212.571,92.348,214.137,93.436,214.137,96.139Z" transform="translate(5521.162 -11714.882)" fill="#37474f"/>
    <path id="Path_755" data-name="Path 755" d="M210.623,209.612l-105.41,72.963c-1.947,1.352-3.514.263-3.514-2.44V175.122L214.137,97.28V202.293A9.838,9.838,0,0,1,210.623,209.612Z" transform="translate(5521.162 -11711.739)" fill="#455a64"/>
    <path id="Path_756" data-name="Path 756" d="M217.736,92.041l-68.743,49.23a5.891,5.891,0,0,0-2.123,4.388v7.881c0,1.632.952,2.282,2.123,1.474l68.743-49.23a5.891,5.891,0,0,0,2.123-4.388V93.515C219.873,91.883,218.907,91.233,217.736,92.041Z" transform="translate(5512.358 -11695.425)" fill="#ebebeb"/>
    <path id="Path_757" data-name="Path 757" d="M106.227,135.963a3.815,3.815,0,0,0-1.347,2.826c0,1.036.6,1.457,1.347.93a3.69,3.69,0,0,0,1.362-2.808C107.588,135.875,106.988,135.454,106.227,135.963Z" transform="translate(5522.637 -11682.689)" fill="#fafafa"/>
    <path id="Path_758" data-name="Path 758" d="M109.912,133.843a3.826,3.826,0,0,0-1.362,2.826c0,1.036.615,1.457,1.362.93a3.7,3.7,0,0,0,1.347-2.808C111.258,133.755,110.673,133.334,109.912,133.843Z" transform="translate(5524.34 -11684.291)" fill="#fafafa"/>
    <path id="Path_759" data-name="Path 759" d="M113.577,131.723a3.815,3.815,0,0,0-1.347,2.826c0,1.036.6,1.457,1.347.93a3.69,3.69,0,0,0,1.362-2.808C114.938,131.635,114.324,131.214,113.577,131.723Z" transform="translate(5526.048 -11685.892)" fill="#fafafa"/>
    <path id="Path_768" data-name="Path 768" d="M363.248,193.42V295.062c0,1.053-.615,1.474-1.362.948l-115.57-79.984a3.845,3.845,0,0,1-1.376-2.861V111.505c0-1.053.615-1.474,1.376-.948l115.57,79.931a3.9,3.9,0,0,1,1.362,2.931Z" transform="translate(5587.628 -11701.884)" fill="#455a64"/>
    <path id="Path_769" data-name="Path 769" d="M246.316,110.568l115.57,79.913a3.89,3.89,0,0,1,1.362,2.861v7.214L244.94,118.519V111.5C244.94,110.462,245.555,110.041,246.316,110.568Z" transform="translate(5587.628 -11701.876)" fill="#37474f"/>
    <path id="Path_770" data-name="Path 770" d="M322.777,156.263a3.694,3.694,0,0,1,1.362,2.826c0,1.036-.6,1.457-1.362.93a3.7,3.7,0,0,1-1.347-2.808C321.43,156.175,322.03,155.754,322.777,156.263Z" transform="translate(5623.122 -11667.359)" fill="#fafafa"/>
    <path id="Path_771" data-name="Path 771" d="M319.107,154.143a3.826,3.826,0,0,1,1.362,2.826c0,1.036-.615,1.457-1.362.93a3.7,3.7,0,0,1-1.347-2.808C317.76,154.055,318.36,153.634,319.107,154.143Z" transform="translate(5621.418 -11668.961)" fill="#fafafa"/>
    <path id="Path_772" data-name="Path 772" d="M315.432,152.023a3.815,3.815,0,0,1,1.347,2.826c0,1.036-.6,1.457-1.347.93a3.69,3.69,0,0,1-1.362-2.808C314.085,151.935,314.7,151.514,315.432,152.023Z" transform="translate(5619.707 -11670.562)" fill="#fafafa"/>
    <path id="Path_779" data-name="Path 779" d="M332,211.5v11.777c0,1.071-.615,1.527-1.391.983L302.788,205.04l-2.474-1.755a3.91,3.91,0,0,1-1.464-2.931V188.559c0-1.071.63-1.509,1.464-.983l30.261,20.957A3.921,3.921,0,0,1,332,211.5Z" transform="translate(5615.264 -11688.27)" fill="#fff"/>
    <path id="Path_797" data-name="Path 797" d="M390.645,375.677l76.947-55.833a2.768,2.768,0,0,0,0-4.879l-50.743-35.1a6.6,6.6,0,0,0-7.027,0L332.89,335.694a2.768,2.768,0,0,0,0,4.879l50.728,35.1a6.626,6.626,0,0,0,7.027,0Z" transform="translate(5627.762 -11574.622)" fill="#37474f"/>
    <path id="Path_798" data-name="Path 798" d="M461.928,305.886l-32.35-22.409a14.246,14.246,0,0,0-15.193,0l-39.473,29.139a6.263,6.263,0,0,0,0,10.515l32.35,22.351a14.246,14.246,0,0,0,15.193,0L461.928,316.4a6.263,6.263,0,0,0,0-10.514Z" transform="translate(5599.082 -11554.645)" fill="#fff"/>
    <path id="Path_807" data-name="Path 807" d="M218.258,92.041l-68.743,49.23a5.891,5.891,0,0,0-2.123,4.388l-1.647,74.218c0,1.632.952,2.282,2.123,1.474l68.743-49.23a5.891,5.891,0,0,0,2.123-4.388l1.647-74.218C220.4,91.883,219.429,91.233,218.258,92.041Z" transform="translate(5511.835 -11678.787)" fill="#ebebeb"/>
    <path id="Path_808" data-name="Path 808" d="M198.122,117.009l27.933-17.921c.556-.369,1.01-.105,1.01.614-.053.821-.025,2.647-.607,3.085l-27.933,17.921c-.556.386-1.413-.978-1.413-1.7a2.713,2.713,0,0,1,1.01-2Z" transform="translate(5465.246 -11648.204)" fill="#37474f"/>
    <path id="Path_808-2" data-name="Path 808" d="M198.122,117.009l27.933-17.921c.556-.369,1.01-.105,1.01.614-.053.821-.025,2.647-.607,3.085l-27.933,17.921c-.556.386-1.413-.978-1.413-1.7a2.713,2.713,0,0,1,1.01-2Z" transform="translate(5465.246 -11635.918)" fill="#37474f"/>
    <path id="Path_808-3" data-name="Path 808" d="M198.122,117.009l27.933-17.921c.556-.369,1.01-.105,1.01.614-.053.821-.025,2.647-.607,3.085l-27.933,17.921c-.556.386-1.413-.978-1.413-1.7a2.713,2.713,0,0,1,1.01-2Z" transform="translate(5465.246 -11621.876)" fill="#37474f"/>
    <path id="Path_808-4" data-name="Path 808" d="M198.122,117.009l27.933-17.921c.556-.369,1.01-.105,1.01.614-.053.821-.025,2.647-.607,3.085l-27.933,17.921c-.556.386-1.413-.978-1.413-1.7a2.713,2.713,0,0,1,1.01-2Z" transform="translate(5465.246 -11609.59)" fill="#37474f"/>
    <path id="Path_808-5" data-name="Path 808" d="M198.122,117.009l27.933-17.921c.556-.369,1.01-.105,1.01.614-.053.821-.025,2.647-.607,3.085l-27.933,17.921c-.556.386-1.413-.978-1.413-1.7a2.713,2.713,0,0,1,1.01-2Z" transform="translate(5465.246 -11597.304)" fill="#37474f"/>
    <path id="Path_810" data-name="Path 810" d="M198.122,114.16l16.483-11.3c.556-.369,1.01-.105,1.01.614-.053.821-.025,2.647-.607,3.085l-16.483,11.3c-.556.386-1.413-.978-1.413-1.7a2.713,2.713,0,0,1,1.01-2Z" transform="translate(5434.624 -11628.322)" fill="#37474f"/>
    <path id="Path_810-2" data-name="Path 810" d="M198.122,114.16l16.483-11.3c.556-.369,1.01-.105,1.01.614-.053.821-.025,2.647-.607,3.085l-16.483,11.3c-.556.386-1.413-.978-1.413-1.7a2.713,2.713,0,0,1,1.01-2Z" transform="translate(5434.624 -11617.791)" fill="#37474f"/>
    <path id="Path_810-3" data-name="Path 810" d="M198.122,114.16l16.483-11.3c.556-.369,1.01-.105,1.01.614-.053.821-.025,2.647-.607,3.085l-16.483,11.3c-.556.386-1.413-.978-1.413-1.7a2.713,2.713,0,0,1,1.01-2Z" transform="translate(5434.624 -11607.26)" fill="#37474f"/>
    <path id="Path_810-4" data-name="Path 810" d="M198.122,114.16l16.483-11.3c.556-.369,1.01-.105,1.01.614-.053.821-.025,2.647-.607,3.085l-16.483,11.3c-.556.386-1.413-.978-1.413-1.7a2.713,2.713,0,0,1,1.01-2Z" transform="translate(5434.624 -11596.729)" fill="#37474f"/>
    <path id="Path_810-5" data-name="Path 810" d="M198.122,114.16l16.483-11.3c.556-.369,1.01-.105,1.01.614-.053.821-.025,2.647-.607,3.085l-16.483,11.3c-.556.386-1.413-.978-1.413-1.7a2.713,2.713,0,0,1,1.01-2Z" transform="translate(5434.624 -11586.197)" fill="#37474f"/>
    <g id="Group_908" data-name="Group 908" transform="translate(5700.288 -11571.898)">
      <path id="Path_765" data-name="Path 765" d="M132.431,129.46l-24.638,17.145a4.192,4.192,0,0,0-1.481,3.074l-.1,40.56c0,1.127.654,1.592,1.471,1.029l24.74-17.145a4.11,4.11,0,0,0,1.481-3.062V130.477C133.9,129.35,133.238,128.946,132.431,129.46Z" transform="translate(-106.21 -129.206)" fill="#fafafa"/>
      <path id="Path_766" data-name="Path 766" d="M128.933,146.575c-3.5,2.449-6.343.453-6.343-4.4a17.841,17.841,0,0,1,1.777-7.348l7.712-5.376c.807-.563,1.471-.11,1.471,1.016V140.6a15.1,15.1,0,0,1-4.617,5.976Z" transform="translate(-105.858 -129.212)" fill="#263238"/>
      <path id="Path_767" data-name="Path 767" d="M106.26,167.349h0l4.638-18.97c.347-1.445,1.1-1.531,1.685-.2l6.793,15.541,2.768-8.866c.439-1.408,1.216-1.445,1.737-.073l6.435,16.814h0L107.68,187.274c-.695.478-1.256.208-1.42-.551Z" transform="translate(-106.209 -125.163)" fill="#263238"/>
    </g>
    <path id="Path_811" data-name="Path 811" d="M198.2,115.011,215.9,102.874c.6-.4,1.085-.113,1.085.66-.057.882-.026,2.844-.652,3.314L198.63,118.985c-.6.415-1.518-1.051-1.518-1.824a2.914,2.914,0,0,1,1.085-2.15Z" transform="translate(5508.338 -11619.753)" fill="#37474f"/>
    <path id="Path_812" data-name="Path 812" d="M201.342,111.247l3.723-2.532c.4-.276.31,0,.31,0s.106.3-.31.614l-3.723,2.532c-.4.276-.251-.175-.251-.175S200.923,111.562,201.342,111.247Z" transform="translate(5555.42 -11697.912)" fill="#fafafa"/>
    <path id="Path_812-2" data-name="Path 812" d="M201.342,111.247l3.723-2.532c.4-.276.31,0,.31,0s.106.3-.31.614l-3.723,2.532c-.4.276-.251-.175-.251-.175S200.923,111.562,201.342,111.247Z" transform="translate(5555.42 -11696.157)" fill="#fafafa"/>
    <path id="Path_812-3" data-name="Path 812" d="M201.342,111.247l3.723-2.532c.4-.276.31,0,.31,0s.106.3-.31.614l-3.723,2.532c-.4.276-.251-.175-.251-.175S200.923,111.562,201.342,111.247Z" transform="translate(5555.42 -11694.401)" fill="#fafafa"/>
    <path id="Path_813" data-name="Path 813" d="M195.761,110.682c1.332-.93,2.416-.176,2.416,1.667a6.664,6.664,0,0,1-2.416,4.985c-1.332.913-2.4.176-2.4-1.755a6.671,6.671,0,0,1,2.4-4.9Z" transform="translate(5436.866 -11640.677)" fill="#37474f"/>
    <g id="Group_910" data-name="Group 910" transform="translate(5637.012 -11543.854)">
      <path id="Path_748-2" data-name="Path 748" d="M200.11,112.252l13.572-9.39c.556-.369,1.01-.105,1.01.614a2.713,2.713,0,0,1-1.01,2l-13.572,9.39c-.556.386-1.01.105-1.01-.614a2.713,2.713,0,0,1,1.01-2Z" transform="translate(-199.1 -102.695)" fill="#37474f"/>
      <path id="Path_749-2" data-name="Path 749" d="M200.11,113.03l7.467-5.266c.556-.386,1.01-.105,1.01.614a2.712,2.712,0,0,1-1.01,2l-7.467,5.266c-.556.386-1.01.123-1.01-.6a2.717,2.717,0,0,1,1.01-2.018Z" transform="translate(-199.1 -98.998)" fill="#37474f"/>
    </g>
    <g id="Group_912" data-name="Group 912" transform="translate(5937.884 -11500.916)">
      <path id="Path_773" data-name="Path 773" d="M256.291,128.822c-1.466-1.016-2.651-.191-2.651,1.832a7.386,7.386,0,0,0,2.651,5.5c1.462,1.011,2.647.191,2.647-1.836A7.4,7.4,0,0,0,256.291,128.822Z" transform="translate(-253.64 -128.387)" fill="#fff"/>
      <path id="Path_774" data-name="Path 774" d="M258.649,132.287c-.474-.331-.859-.065-.859.6a2.4,2.4,0,0,0,.859,1.785c.474.326.859.061.859-.6A2.4,2.4,0,0,0,258.649,132.287Z" transform="translate(-256.177 -130.393)" fill="#263238"/>
      <path id="Path_775" data-name="Path 775" d="M256.15,138.873c0-1.081.63-1.519,1.411-.979l.486.34a3.924,3.924,0,0,1,1.415,2.932v.289a1.743,1.743,0,0,1-1.637-.345,5.8,5.8,0,0,1-1.676-1.986Z" transform="translate(-255.174 -133.34)" fill="#263238"/>
    </g>
    <path id="Path_815" data-name="Path 815" d="M373.79,237.541l-.361,38.829s-.615,1.527-1.391.983l-70.46-47.332-2.474-1.755a3.91,3.91,0,0,1-1.464-2.931L298,186.488c0-1.071.63-1.509,1.464-.983l72.9,49.07a3.921,3.921,0,0,1,1.42,2.966Z" transform="translate(5538.881 -11738.834)" fill="#fff"/>
    <path id="Path_816" data-name="Path 816" d="M372.956,239.173V250.95c0,1.071-.615,1.527-1.391.983L302.788,205.04l-2.474-1.755a3.91,3.91,0,0,1-1.464-2.931V188.559c0-1.071.63-1.509,1.464-.983l71.222,48.631A3.921,3.921,0,0,1,372.956,239.173Z" transform="translate(5538.032 -11694.467)" fill="#fff"/>
    <path id="Path_817" data-name="Path 817" d="M309.015,195.9v9.14c0,1.071-.644,2.926-1.42,2.382l-4.807-2.382-2.474-1.755a3.91,3.91,0,0,1-1.464-2.931V188.559c0-1.071.63-1.509,1.464-.983l7.281,5.358a3.921,3.921,0,0,1,1.42,2.966Z" transform="translate(5539.903 -11733.78)" fill="#ffbe1a"/>
    <path id="Path_818" data-name="Path 818" d="M309.049,197.942c0,.77-.442,1.1-1,.707l-6.643-4.45-1.779-1.262c-.614-.458-1.006-1.243-.753-.982,0-.77.453-1.085,1.053-.707l8.4,5.7Z" transform="translate(5539.958 -11759.302)" fill="#455a64"/>
    <path id="Path_819" data-name="Path 819" d="M332,211.5l-.029,27.642c0,1.071-.615,1.527-1.391.983L302.768,220.9l-2.474-1.755a3.91,3.91,0,0,1-1.464-2.931l.029-27.66c0-1.071.63-1.509,1.464-.983l30.261,20.957A3.921,3.921,0,0,1,332,211.5Z" transform="translate(5614.862 -11669.701)" fill="#fff"/>
    <path id="Path_820" data-name="Path 820" d="M313.448,202.2l-.029,5.223c0,1.071-.615,1.527-1.391.983l-9.24-6.189-2.474-1.755a3.91,3.91,0,0,1-1.464-2.931l.029-5.24c0-1.071.63-1.509,1.464-.983l11.685,7.926a3.921,3.921,0,0,1,1.42,2.966Z" transform="translate(5632.909 -11626.512)" fill="#fff"/>
    <path id="Path_821" data-name="Path 821" d="M309.015,195.9v9.14c0,1.071-.644,2.926-1.42,2.382l-4.807-2.382-2.474-1.755a3.91,3.91,0,0,1-1.464-2.931V188.559c0-1.071.63-1.509,1.464-.983l7.281,5.358a3.921,3.921,0,0,1,1.42,2.966Z" transform="translate(5551.615 -11726.431)" fill="#ececec"/>
    <path id="Path_822" data-name="Path 822" d="M309.015,195.9v9.14c0,1.071-.644,2.926-1.42,2.382l-4.807-2.382-2.474-1.755a3.91,3.91,0,0,1-1.464-2.931V188.559c0-1.071.63-1.509,1.464-.983l7.281,5.358a3.921,3.921,0,0,1,1.42,2.966Z" transform="translate(5563.328 -11717.654)" fill="#ececec"/>
    <path id="Path_823" data-name="Path 823" d="M309.015,195.9v9.14c0,1.071-.644,2.926-1.42,2.382l-4.807-2.382-2.474-1.755a3.91,3.91,0,0,1-1.464-2.931V188.559c0-1.071.63-1.509,1.464-.983l7.281,5.358a3.921,3.921,0,0,1,1.42,2.966Z" transform="translate(5575.04 -11710.634)" fill="#ececec"/>
    <path id="Path_824" data-name="Path 824" d="M309.015,195.9v9.14c0,1.071-.644,2.926-1.42,2.382l-4.807-2.382-2.474-1.755a3.91,3.91,0,0,1-1.464-2.931V188.559c0-1.071.63-1.509,1.464-.983l7.281,5.358a3.921,3.921,0,0,1,1.42,2.966Z" transform="translate(5586.752 -11701.909)" fill="#ececec"/>
    <path id="Path_825" data-name="Path 825" d="M315.2,152.021a4.088,4.088,0,0,1,1.122,2.8c0,1.026-.5,1.444-1.122.922a3.942,3.942,0,0,1-1.134-2.783C314.082,151.934,314.594,151.517,315.2,152.021Z" transform="translate(5571.532 -11686.821)" fill="none" stroke="#be2121" stroke-width="0.5"/>
    <path id="Path_826" data-name="Path 826" d="M313.448,202.2l-.029,5.223c0,1.071-.615,1.527-1.391.983l-9.24-6.189-2.474-1.755a3.91,3.91,0,0,1-1.464-2.931l.029-5.24c0-1.071.63-1.509,1.464-.983l11.685,7.926a3.921,3.921,0,0,1,1.42,2.966Z" transform="translate(5614.871 -11638.798)" fill="#fff"/>
    <path id="Path_827" data-name="Path 827" d="M306.394,196.167c0,.57-.328.814-.741.524l-4.923-3.3-1.318-.935c-.455-.339-.745-.921-.558-.728,0-.57.335-.8.78-.524l6.226,4.223Z" transform="translate(5539.958 -11755.406)" fill="#455a64"/>
    <path id="Path_829" data-name="Path 829" d="M393.595,289.124l-9.216-7.37a3.053,3.053,0,0,0-3.255,0L372.666,288a1.342,1.342,0,0,0,0,2.253l9.215,7.358a3.053,3.053,0,0,0,3.255,0l8.458-6.231a1.342,1.342,0,0,0,0-2.253Z" transform="translate(5602.141 -11524.248)" fill="#ececec"/>
    <path id="Path_829-2" data-name="Path 829" d="M393.595,289.124l-9.216-7.37a3.053,3.053,0,0,0-3.255,0L372.666,288a1.342,1.342,0,0,0,0,2.253l9.215,7.358a3.053,3.053,0,0,0,3.255,0l8.458-6.231a1.342,1.342,0,0,0,0-2.253Z" transform="translate(5615.318 -11533.97)" fill="#ececec"/>
    <path id="Path_830" data-name="Path 830" d="M393.595,289.124l-9.216-7.37a3.053,3.053,0,0,0-3.255,0L372.666,288a1.342,1.342,0,0,0,0,2.253l9.215,7.358a3.053,3.053,0,0,0,3.255,0l8.458-6.231a1.342,1.342,0,0,0,0-2.253Z" transform="translate(5628.494 -11542.746)" fill="#ececec"/>
    <path id="Path_831" data-name="Path 831" d="M393.595,289.124l-9.216-7.37a3.053,3.053,0,0,0-3.255,0L372.666,288a1.342,1.342,0,0,0,0,2.253l9.215,7.358a3.053,3.053,0,0,0,3.255,0l8.458-6.231a1.342,1.342,0,0,0,0-2.253Z" transform="translate(5641.669 -11552.9)" fill="#ececec"/>
    <path id="Path_832" data-name="Path 832" d="M442.831,299.965l-23.962-16.487a14.246,14.246,0,0,0-15.193,0l-5.683,4.093a6.263,6.263,0,0,0,0,10.515l23.962,16.429a14.246,14.246,0,0,0,15.193,0l5.683-4.036a6.263,6.263,0,0,0,0-10.514Z" transform="translate(5630.288 -11570.441)" fill="#fff"/>
    <path id="Path_833" data-name="Path 833" d="M381.124,281.667l-8.458,6.243a1.261,1.261,0,0,0-.613,1.127c0,.488.676.658,1.7.031l8.458-6.231a1.261,1.261,0,0,0,.613-1.127A1.358,1.358,0,0,0,381.124,281.667Z" transform="translate(5657.774 -11565.477)" fill="#ececec"/>
    <path id="Path_834" data-name="Path 834" d="M384.548,279.9l-11.882,9.336a1.261,1.261,0,0,0-.613,1.127c0,.488.676.658,1.7.031l11.882-9.324a1.261,1.261,0,0,0,.613-1.126A1.358,1.358,0,0,0,384.548,279.9Z" transform="translate(5660.703 -11565.052)" fill="#ececec"/>
    <path id="Path_835" data-name="Path 835" d="M377.91,282.832l-5.244,4.2a1.261,1.261,0,0,0-.613,1.127c0,.488.676.658,1.7.031L379,284a2.253,2.253,0,0,0,.613-1.126A1.358,1.358,0,0,0,377.91,282.832Z" transform="translate(5663.159 -11560.558)" fill="#ececec"/>
    <path id="Path_836" data-name="Path 836" d="M377.114,282.832l-2.732,2.241a1.261,1.261,0,0,0-.613,1.126c0,.488.676.658,1.7.031L378.2,284a2.253,2.253,0,0,0,.613-1.126A1.358,1.358,0,0,0,377.114,282.832Z" transform="translate(5671.914 -11566.643)" fill="#ececec"/>
    <path id="Path_837" data-name="Path 837" d="M394.218,280.853l-2.949-1.817a3.053,3.053,0,0,0-3.255,0l-15.347,11.013a1.342,1.342,0,0,0,0,2.253l2.949,1.8a3.7,3.7,0,0,0,3.609,0l14.994-11a1.342,1.342,0,0,0,0-2.253Z" transform="translate(5689.982 -11540.91)" fill="#ececec"/>
  </g>
</svg>
