<svg xmlns="http://www.w3.org/2000/svg" xmlns:xlink="http://www.w3.org/1999/xlink" width="64" height="64" viewBox="0 0 64 64">
  <defs>
    <clipPath id="clip-path">
      <path id="Path_77" data-name="Path 77" d="M142.1,147h28.14v32.184H142.1Zm0,0" transform="translate(-142.098 -147)" fill="#707070"/>
    </clipPath>
    <clipPath id="clip-path-2">
      <path id="Path_79" data-name="Path 79" d="M142.1,102h64v64h-64Zm0,0" transform="translate(-142.098 -102)" fill="#ffbe1a"/>
    </clipPath>
  </defs>
  <g id="Group_879" data-name="Group 879" transform="translate(-5288.266 10299)">
    <g id="Group_425" data-name="Group 425" transform="translate(5288.266 -10267.187)" clip-path="url(#clip-path)">
      <path id="Path_76" data-name="Path 76" d="M151.211,147.145,142.1,162.959l.049.052,9.113,15.864h18.229l-9.113-15.814,9.165-15.916Zm0,0" transform="translate(-142.098 -147.042)" fill="#707070" fill-rule="evenodd"/>
    </g>
    <g id="Group_426" data-name="Group 426" transform="translate(5288.266 -10299)" clip-path="url(#clip-path-2)">
      <path id="Path_78" data-name="Path 78" d="M160.4,118.083h18.328l4.609,7.982L187.89,134l-4.557,7.984-4.609,7.931,9.116,15.814L197,149.863,206.119,134,197,118.132l-9.162-15.866H151.281l-9.113,15.817Zm0,0" transform="translate(-142.119 -102.078)" fill="#ffbe1a" fill-rule="evenodd"/>
    </g>
  </g>
</svg>
