<svg xmlns="http://www.w3.org/2000/svg" xmlns:xlink="http://www.w3.org/1999/xlink" width="118.042" height="99.671" viewBox="0 0 118.042 99.671">
  <defs>
    <clipPath id="clip-path">
      <path id="Path_77" data-name="Path 77" d="M142.1,147h29.189v33.3H142.1Zm0,0" transform="translate(-142.098 -147)" fill="#707070"/>
    </clipPath>
    <clipPath id="clip-path-2">
      <path id="Path_79" data-name="Path 79" d="M142.1,102h66.384v66.216H142.1Zm0,0" transform="translate(-142.098 -102)" fill="#ffbe1a"/>
    </clipPath>
  </defs>
  <g id="REKA_LOGO" transform="translate(-107.921 -102)">
    <g id="Group_425" data-name="Group 425" transform="translate(132.922 134.918)" clip-path="url(#clip-path)">
      <path id="Path_76" data-name="Path 76" d="M151.551,147.145,142.1,163.507l.051.054,9.453,16.413H170.51l-9.453-16.362,9.507-16.467Zm0,0" transform="translate(-142.098 -147.039)" fill="#707070" fill-rule="evenodd"/>
    </g>
    <g id="Group_426" data-name="Group 426" transform="translate(132.922 102)" clip-path="url(#clip-path-2)">
      <path id="Path_78" data-name="Path 78" d="M161.076,118.631h19.01l4.78,8.258,4.726,8.207-4.726,8.261-4.78,8.206,9.455,16.362,9.5-16.413L208.5,135.1l-9.455-16.414-9.5-16.416H151.621l-9.453,16.365Zm0,0" transform="translate(-142.117 -102.071)" fill="#ffbe1a" fill-rule="evenodd"/>
    </g>
    <g id="Group_429" data-name="Group 429" transform="translate(107.921 182.183)">
      <g id="Group_428" data-name="Group 428" transform="translate(0 0)">
        <g id="Group_427" data-name="Group 427" transform="translate(0 0)">
          <path id="Path_80" data-name="Path 80" d="M16.1-7.052l-3.932-5.623c-.16.017-.406.023-.732.023H7.1v5.6H3.531V-26.266h7.909a10.622,10.622,0,0,1,4.343.823,6.288,6.288,0,0,1,2.835,2.366,6.554,6.554,0,0,1,.994,3.646A6.472,6.472,0,0,1,18.55-15.7a6.3,6.3,0,0,1-3.029,2.343l4.423,6.309Zm-.08-12.379a3.435,3.435,0,0,0-1.212-2.823,5.472,5.472,0,0,0-3.543-.994H7.1v7.658h4.172a5.472,5.472,0,0,0,3.543-.994A3.492,3.492,0,0,0,16.024-19.431Zm0,0" transform="translate(-3.531 26.266)" fill="#333"/>
        </g>
      </g>
    </g>
    <g id="Group_432" data-name="Group 432" transform="translate(131.837 182.183)">
      <g id="Group_431" data-name="Group 431" transform="translate(0 0)">
        <g id="Group_430" data-name="Group 430" transform="translate(0 0)">
          <path id="Path_81" data-name="Path 81" d="M17.944-10.047v2.995H3.531V-26.266H17.556v2.983H7.1v5.006h9.281v2.938H7.1v5.292Zm0,0" transform="translate(-3.531 26.266)" fill="#333"/>
        </g>
      </g>
    </g>
    <g id="Group_435" data-name="Group 435" transform="translate(154.078 182.183)">
      <g id="Group_434" data-name="Group 434" transform="translate(0 0)">
        <g id="Group_433" data-name="Group 433" transform="translate(0 0)">
          <path id="Path_82" data-name="Path 82" d="M10.149-15.1,7.1-11.967v4.915H3.531V-26.266H7.1v9.852l9.5-9.852h4.012l-8.069,8.584L21.1-7.052H16.927Zm0,0" transform="translate(-3.531 26.266)" fill="#333"/>
        </g>
      </g>
    </g>
    <g id="Group_438" data-name="Group 438" transform="translate(175.219 182.183)">
      <g id="Group_437" data-name="Group 437" transform="translate(0 0)">
        <g id="Group_436" data-name="Group 436" transform="translate(0 0)">
          <path id="Path_83" data-name="Path 83" d="M14.991-11.5H5.39l-1.9,4.446H-.187L8.465-26.266h3.509L20.649-7.052H16.912Zm-1.177-2.8-3.623-8.4-3.6,8.4Zm0,0" transform="translate(0.188 26.266)" fill="#333"/>
        </g>
      </g>
    </g>
    <g id="Group_441" data-name="Group 441" transform="translate(201.31 182.183)">
      <g id="Group_440" data-name="Group 440" transform="translate(0 0)">
        <g id="Group_439" data-name="Group 439" transform="translate(0 0)">
          <path id="Path_84" data-name="Path 84" d="M2.109-26.266H5.07l-.251,7.6H2.327Zm0,0" transform="translate(-2.109 26.266)" fill="#333"/>
        </g>
      </g>
    </g>
    <g id="Group_444" data-name="Group 444" transform="translate(210.613 181.909)">
      <g id="Group_443" data-name="Group 443" transform="translate(0 0)">
        <g id="Group_442" data-name="Group 442" transform="translate(0 0)">
          <path id="Path_85" data-name="Path 85" d="M8.89-6.878a14.754,14.754,0,0,1-4.3-.629,8.818,8.818,0,0,1-3.28-1.68l1.234-2.766a9.8,9.8,0,0,0,2.892,1.52,10.506,10.506,0,0,0,3.452.594,5.928,5.928,0,0,0,3.189-.686,2.08,2.08,0,0,0,1.063-1.817,1.763,1.763,0,0,0-.594-1.36,4.061,4.061,0,0,0-1.486-.834q-.9-.309-2.469-.686a29.743,29.743,0,0,1-3.566-1.04A5.942,5.942,0,0,1,2.7-17.9,4.422,4.422,0,0,1,1.724-20.9a5.171,5.171,0,0,1,.857-2.9,5.852,5.852,0,0,1,2.606-2.069,10.669,10.669,0,0,1,4.275-.766,14.028,14.028,0,0,1,3.463.434,9.407,9.407,0,0,1,2.937,1.269l-1.12,2.766a11,11,0,0,0-2.64-1.12,9.828,9.828,0,0,0-2.663-.389,5.517,5.517,0,0,0-3.143.72,2.191,2.191,0,0,0-1.029,1.886,1.732,1.732,0,0,0,.583,1.349,4.163,4.163,0,0,0,1.5.823q.913.3,2.48.686a25.926,25.926,0,0,1,3.509,1.029,6.042,6.042,0,0,1,2.343,1.634,4.28,4.28,0,0,1,.983,2.96A5.074,5.074,0,0,1,15.794-9.7a5.875,5.875,0,0,1-2.629,2.057A10.678,10.678,0,0,1,8.89-6.878Zm0,0" transform="translate(-1.313 26.641)" fill="#333"/>
        </g>
      </g>
    </g>
  </g>
</svg>
